<svg width="575" height="282" viewBox="0 0 575 282" fill="none" xmlns="http://www.w3.org/2000/svg">
<path d="M54.3652 239.796L43.0552 271H34.3551L27.3372 251.628L20.0872 271H11.3871L0.135148 239.796H8.66115L16.0271 260.908L23.6831 239.796H31.3392L38.7632 260.908L46.3612 239.796H54.3652ZM58.5715 239.796H67.6195V271H58.5715V239.796ZM63.0955 235.446C61.4328 235.446 60.0795 234.963 59.0355 233.996C57.9915 233.029 57.4695 231.831 57.4695 230.4C57.4695 228.969 57.9915 227.771 59.0355 226.804C60.0795 225.837 61.4328 225.354 63.0955 225.354C64.7582 225.354 66.1115 225.818 67.1555 226.746C68.1995 227.674 68.7215 228.834 68.7215 230.226C68.7215 231.734 68.1995 232.991 67.1555 233.996C66.1115 234.963 64.7582 235.446 63.0955 235.446ZM96.1428 269.492C95.2535 270.149 94.1515 270.652 92.8368 271C91.5608 271.309 90.2075 271.464 88.7768 271.464C85.0648 271.464 82.1842 270.517 80.1348 268.622C78.1242 266.727 77.1188 263.943 77.1188 260.27V247.452H72.3048V240.492H77.1188V232.894H86.1668V240.492H93.9388V247.452H86.1668V260.154C86.1668 261.469 86.4955 262.493 87.1528 263.228C87.8488 263.924 88.8155 264.272 90.0528 264.272C91.4835 264.272 92.7015 263.885 93.7068 263.112L96.1428 269.492ZM120.188 239.332C124.055 239.332 127.167 240.492 129.526 242.812C131.923 245.132 133.122 248.573 133.122 253.136V271H124.074V254.528C124.074 252.053 123.533 250.217 122.45 249.018C121.367 247.781 119.801 247.162 117.752 247.162C115.471 247.162 113.653 247.877 112.3 249.308C110.947 250.7 110.27 252.788 110.27 255.572V271H101.222V227.964H110.27V243.044C111.469 241.845 112.919 240.937 114.62 240.318C116.321 239.661 118.177 239.332 120.188 239.332ZM362.851 240.492H370.855V247.452H363.083V271H354.035V247.452H349.221V240.492H354.035V239.1C354.035 235.543 355.079 232.72 357.167 230.632C359.294 228.544 362.271 227.5 366.099 227.5C367.452 227.5 368.728 227.655 369.927 227.964C371.164 228.235 372.189 228.641 373.001 229.182L370.623 235.736C369.579 235.001 368.361 234.634 366.969 234.634C364.224 234.634 362.851 236.142 362.851 239.158V240.492ZM389.814 271.464C386.527 271.464 383.569 270.787 380.94 269.434C378.349 268.042 376.319 266.128 374.85 263.692C373.381 261.256 372.646 258.491 372.646 255.398C372.646 252.305 373.381 249.54 374.85 247.104C376.319 244.668 378.349 242.773 380.94 241.42C383.569 240.028 386.527 239.332 389.814 239.332C393.101 239.332 396.039 240.028 398.63 241.42C401.221 242.773 403.251 244.668 404.72 247.104C406.189 249.54 406.924 252.305 406.924 255.398C406.924 258.491 406.189 261.256 404.72 263.692C403.251 266.128 401.221 268.042 398.63 269.434C396.039 270.787 393.101 271.464 389.814 271.464ZM389.814 264.04C392.134 264.04 394.029 263.267 395.498 261.72C397.006 260.135 397.76 258.027 397.76 255.398C397.76 252.769 397.006 250.681 395.498 249.134C394.029 247.549 392.134 246.756 389.814 246.756C387.494 246.756 385.58 247.549 384.072 249.134C382.564 250.681 381.81 252.769 381.81 255.398C381.81 258.027 382.564 260.135 384.072 261.72C385.58 263.267 387.494 264.04 389.814 264.04ZM421.614 243.914C422.697 242.406 424.147 241.265 425.964 240.492C427.82 239.719 429.947 239.332 432.344 239.332V247.684C431.339 247.607 430.662 247.568 430.314 247.568C427.723 247.568 425.693 248.303 424.224 249.772C422.755 251.203 422.02 253.368 422.02 256.268V271H412.972V239.796H421.614V243.914ZM464.294 240.492H472.298V247.452H464.526V271H455.478V247.452H450.664V240.492H455.478V239.1C455.478 235.543 456.522 232.72 458.61 230.632C460.737 228.544 463.714 227.5 467.542 227.5C468.896 227.5 470.172 227.655 471.37 227.964C472.608 228.235 473.632 228.641 474.444 229.182L472.066 235.736C471.022 235.001 469.804 234.634 468.412 234.634C465.667 234.634 464.294 236.142 464.294 239.158V240.492ZM490.092 243.914C491.175 242.406 492.625 241.265 494.442 240.492C496.298 239.719 498.425 239.332 500.822 239.332V247.684C499.817 247.607 499.14 247.568 498.792 247.568C496.202 247.568 494.172 248.303 492.702 249.772C491.233 251.203 490.498 253.368 490.498 256.268V271H481.45V239.796H490.092V243.914ZM536.485 255.514C536.485 255.63 536.427 256.442 536.311 257.95H512.705C513.13 259.883 514.136 261.411 515.721 262.532C517.306 263.653 519.278 264.214 521.637 264.214C523.261 264.214 524.692 263.982 525.929 263.518C527.205 263.015 528.384 262.242 529.467 261.198L534.281 266.418C531.342 269.782 527.05 271.464 521.405 271.464C517.886 271.464 514.774 270.787 512.067 269.434C509.36 268.042 507.272 266.128 505.803 263.692C504.334 261.256 503.599 258.491 503.599 255.398C503.599 252.343 504.314 249.598 505.745 247.162C507.214 244.687 509.206 242.773 511.719 241.42C514.271 240.028 517.113 239.332 520.245 239.332C523.3 239.332 526.064 239.989 528.539 241.304C531.014 242.619 532.947 244.513 534.339 246.988C535.77 249.424 536.485 252.266 536.485 255.514ZM520.303 246.176C518.254 246.176 516.533 246.756 515.141 247.916C513.749 249.076 512.898 250.661 512.589 252.672H527.959C527.65 250.7 526.799 249.134 525.407 247.974C524.015 246.775 522.314 246.176 520.303 246.176ZM573.075 255.514C573.075 255.63 573.017 256.442 572.901 257.95H549.295C549.72 259.883 550.726 261.411 552.311 262.532C553.896 263.653 555.868 264.214 558.227 264.214C559.851 264.214 561.282 263.982 562.519 263.518C563.795 263.015 564.974 262.242 566.057 261.198L570.871 266.418C567.932 269.782 563.64 271.464 557.995 271.464C554.476 271.464 551.364 270.787 548.657 269.434C545.95 268.042 543.862 266.128 542.393 263.692C540.924 261.256 540.189 258.491 540.189 255.398C540.189 252.343 540.904 249.598 542.335 247.162C543.804 244.687 545.796 242.773 548.309 241.42C550.861 240.028 553.703 239.332 556.835 239.332C559.89 239.332 562.654 239.989 565.129 241.304C567.604 242.619 569.537 244.513 570.929 246.988C572.36 249.424 573.075 252.266 573.075 255.514ZM556.893 246.176C554.844 246.176 553.123 246.756 551.731 247.916C550.339 249.076 549.488 250.661 549.179 252.672H564.549C564.24 250.7 563.389 249.134 561.997 247.974C560.605 246.775 558.904 246.176 556.893 246.176Z" fill="white"/>
<path d="M202.293 275.35C200.979 276.974 199.374 278.211 197.479 279.062C195.623 279.913 193.574 280.338 191.331 280.338C188.315 280.338 185.589 279.681 183.153 278.366C180.717 277.09 177.933 274.809 174.801 271.522C171.128 271.058 167.841 269.879 164.941 267.984C162.08 266.089 159.837 263.653 158.213 260.676C156.628 257.66 155.835 254.335 155.835 250.7C155.835 246.717 156.783 243.141 158.677 239.97C160.611 236.761 163.259 234.247 166.623 232.43C170.026 230.613 173.835 229.704 178.049 229.704C182.264 229.704 186.053 230.613 189.417 232.43C192.781 234.247 195.43 236.761 197.363 239.97C199.297 243.141 200.263 246.717 200.263 250.7C200.263 255.417 198.929 259.555 196.261 263.112C193.632 266.669 190.133 269.144 185.763 270.536C186.73 271.541 187.658 272.257 188.547 272.682C189.475 273.146 190.461 273.378 191.505 273.378C194.019 273.378 196.223 272.373 198.117 270.362L202.293 275.35ZM165.347 250.7C165.347 253.213 165.889 255.456 166.971 257.428C168.093 259.4 169.62 260.947 171.553 262.068C173.487 263.151 175.652 263.692 178.049 263.692C180.447 263.692 182.612 263.151 184.545 262.068C186.479 260.947 187.987 259.4 189.069 257.428C190.191 255.456 190.751 253.213 190.751 250.7C190.751 248.187 190.191 245.944 189.069 243.972C187.987 242 186.479 240.473 184.545 239.39C182.612 238.269 180.447 237.708 178.049 237.708C175.652 237.708 173.487 238.269 171.553 239.39C169.62 240.473 168.093 242 166.971 243.972C165.889 245.944 165.347 248.187 165.347 250.7ZM244.999 230.4L227.425 271H218.145L200.629 230.4H210.779L223.133 259.4L235.661 230.4H244.999ZM265.963 230.4C269.559 230.4 272.672 230.999 275.301 232.198C277.969 233.397 280.019 235.098 281.449 237.302C282.88 239.506 283.595 242.116 283.595 245.132C283.595 248.109 282.88 250.719 281.449 252.962C280.019 255.166 277.969 256.867 275.301 258.066C272.672 259.226 269.559 259.806 265.963 259.806H257.785V271H248.389V230.4H265.963ZM265.441 252.15C268.264 252.15 270.41 251.551 271.879 250.352C273.349 249.115 274.083 247.375 274.083 245.132C274.083 242.851 273.349 241.111 271.879 239.912C270.41 238.675 268.264 238.056 265.441 238.056H257.785V252.15H265.441ZM327.539 230.4V271H319.825L299.583 246.35V271H290.303V230.4H298.075L318.259 255.05V230.4H327.539Z" fill="url(#paint0_linear)"/>
<path d="M435.935 137.869C431.088 139.007 418.288 139.639 418.288 139.639L416.714 144.778C416.714 144.778 423.052 144.23 427.691 144.693C427.691 144.693 429.183 144.567 429.348 146.378C429.431 148.232 429.224 150.17 429.224 150.17C429.224 150.17 429.1 151.307 427.567 151.602C425.786 151.897 413.772 152.444 413.772 152.444L411.825 159.1C411.825 159.1 411.121 160.616 412.737 160.195C414.228 159.774 426.821 157.331 428.478 157.668C430.218 158.089 432.207 160.532 431.627 162.723C430.964 165.376 418.371 173.548 410.748 173.001C410.748 173.001 406.73 173.253 403.374 167.735C400.143 162.47 404.493 152.571 404.493 152.571C404.493 152.571 402.546 147.937 403.996 146.252C403.996 146.252 404.824 145.536 407.31 145.325L410.417 138.838C410.417 138.838 406.896 139.049 404.824 136.437C402.919 133.91 402.753 132.814 404.244 132.14C405.819 131.298 420.4 128.644 430.425 128.981C430.425 128.981 433.947 128.56 437.054 134.752C437.054 134.752 438.462 137.28 435.977 137.869H435.935ZM398.155 162.807C396.912 165.882 393.474 169.125 389.331 167.146C385.106 165.124 378.436 151.307 378.436 151.307C378.436 151.307 375.951 146.168 375.453 146.336C375.453 146.336 374.915 145.325 374.625 150.97C374.211 156.572 374.708 167.483 372.429 169.21C370.358 170.895 367.872 170.178 366.464 168.199C365.304 166.219 364.807 161.459 365.47 153.16C366.215 144.862 368.08 136.016 370.441 133.278C372.926 130.498 374.915 132.52 375.661 133.278C375.661 133.278 378.85 136.227 384.236 144.946L385.147 146.547C385.147 146.547 390.035 154.845 390.532 154.803C390.532 154.803 390.947 155.224 391.278 154.888C391.775 154.761 391.61 152.065 391.61 152.065C391.61 152.065 390.698 143.093 386.141 127.928C386.141 127.928 385.479 125.991 385.935 124.137C386.349 122.452 388.13 123.295 388.13 123.295C388.13 123.295 395.007 126.665 398.362 138.038C401.676 149.412 399.439 159.732 398.196 162.807L398.155 162.807ZM364.434 133.615C363.771 134.795 363.481 136.437 360.623 136.901C360.623 136.901 332.868 138.881 331.501 140.86C331.501 140.86 330.589 142.04 332.081 142.335C333.655 142.672 339.952 143.514 342.934 143.683C346.165 143.683 357.019 143.767 360.996 148.738C360.996 148.738 363.274 151.097 363.191 156.446C363.109 161.922 362.156 163.86 360.043 165.84C357.848 167.693 339.04 176.287 326.902 163.144C326.902 163.144 321.351 156.825 328.849 152.023C328.849 152.023 334.235 148.653 348.03 152.571C348.03 152.571 352.172 154.087 352.007 155.646C351.758 157.331 348.568 159.016 343.928 158.932C339.454 158.805 336.14 156.615 336.803 156.994C337.425 157.204 331.956 154.298 330.258 156.278C328.601 158.131 329.015 159.226 330.672 160.364C334.815 162.807 351.095 161.922 355.942 156.404C355.942 156.404 357.889 154.172 354.948 152.36C352.048 150.675 343.597 149.622 340.324 149.496C337.217 149.327 325.577 149.496 323.837 146.421C323.837 146.421 322.18 144.23 324.003 138.249C325.908 131.93 339.455 129.487 345.337 128.981C345.337 128.981 361.493 128.307 364.517 131.677C364.517 131.677 364.931 132.436 364.434 133.573L364.434 133.615ZM318.617 170.642C316.67 172.116 312.528 171.485 311.326 169.8C310.166 168.325 309.752 162.512 309.959 153.371C310.249 144.02 310.374 132.562 312.445 130.709C314.516 128.897 315.759 130.498 316.588 131.719C317.416 132.983 318.493 134.373 318.659 137.28C318.907 140.229 319.612 155.393 319.612 155.393C319.612 155.393 320.523 169.21 318.659 170.642H318.617ZM322.76 121.357C317.043 123.337 313.149 122.705 309.835 121.231C308.385 123.885 307.515 124.685 306.438 124.853C304.781 125.022 303.331 122.326 303.124 121.483C302.793 120.852 302.006 119.714 302.958 117.145C299.727 114.196 299.479 110.236 300.058 107.583C300.804 104.465 306.272 92.7549 322.843 91.3649C322.843 91.3649 330.962 90.7751 332.371 95.1559H332.619C332.619 95.1559 340.49 95.1559 340.324 102.317C340.324 109.478 331.625 118.408 322.76 121.483L322.76 121.357ZM330.134 100.969C324.914 101.812 316.877 108.888 313.025 114.744C318.949 115.839 329.305 115.418 333.945 105.898C333.945 105.898 336.14 99.916 330.134 100.969ZM307.225 105.603C305.568 108.341 305.485 109.984 306.272 111.079C308.219 108.13 311.658 103.497 316.836 99.8739C312.859 100.295 309.504 101.98 307.225 105.603V105.603ZM448.363 170.347C444.552 179.867 441.321 189.514 439.456 203.962C439.456 203.962 439.042 206.785 436.764 205.858C434.485 205.015 430.757 201.224 429.928 195.875C429.1 188.882 432.165 177.087 438.421 163.523C436.598 160.575 435.314 156.194 436.349 150.044C436.349 150.044 438.006 138.67 449.191 128.392C449.191 128.392 450.517 127.254 451.263 127.634C452.174 128.055 451.801 131.678 451.056 133.531C450.393 135.3 445.422 144.062 445.422 144.062C445.422 144.062 442.315 150.044 443.185 154.719C449.067 145.536 462.448 126.917 470.733 132.815C475.994 136.606 475.994 148.822 472.059 155.899C468.952 161.501 460.169 173.085 448.446 170.389L448.363 170.347ZM465.679 141.745C462.614 145.115 457.145 151.518 452.837 160.195C457.394 159.69 461.827 157.12 463.194 155.815C465.389 153.835 470.443 148.485 469.656 141.408C469.656 141.408 469.159 137.701 465.679 141.745V141.745ZM280.091 175.318C265.427 179.868 251.591 177.761 244.051 175.739C243.844 178.857 243.513 180.162 243.015 180.668C242.435 181.342 237.63 184.122 234.979 180.162C233.819 178.267 233.239 174.855 232.907 171.738C215.923 163.902 208.052 152.361 207.803 151.939C207.389 151.518 203.537 147.432 207.389 142.377C210.993 137.828 222.924 133.236 233.612 131.425C234.026 122.158 235.02 114.997 236.304 111.837C237.837 108.046 239.784 111.416 241.524 113.943C242.933 115.839 243.802 123.969 243.885 130.456C250.845 130.119 255.07 130.624 262.817 132.141C273.008 133.91 279.802 139.218 279.263 145.199C278.766 151.097 273.463 153.54 271.392 153.709C269.321 153.877 266.007 152.318 266.007 152.318C263.687 151.223 265.8 150.212 268.492 149.033C271.475 147.558 270.812 146.084 270.812 146.084C269.735 142.714 256.52 140.482 243.388 140.482C243.388 147.853 243.678 160.069 243.885 167.188C253.082 168.957 259.959 168.578 259.959 168.578C259.959 168.578 293.513 167.609 294.466 145.831C295.502 124.011 260.911 103.118 235.435 96.5462C209.999 89.7642 195.583 94.5663 194.34 95.1982C192.973 95.8722 194.216 96.1249 194.216 96.1249C194.216 96.1249 195.583 96.3354 198.068 97.1781C200.554 98.0205 198.565 99.2842 198.565 99.2842C194.216 100.801 189.369 99.9161 188.416 97.8942C187.463 95.9143 189.038 94.103 190.902 91.4492C192.641 88.7111 194.63 88.7954 194.63 88.7954C226.114 77.6324 264.557 97.6414 264.557 97.6414C300.514 116.092 306.645 137.786 305.983 146.21C305.403 154.509 302.254 168.536 280.091 175.36L280.091 175.318ZM210.91 145.199C207.348 146.884 209.833 149.58 209.833 149.58C216.544 156.868 224.747 161.459 232.617 164.324C233.529 151.687 233.446 147.179 233.446 140.818C221.267 141.661 214.224 143.683 210.91 145.199" fill="white"/>
<path fill-rule="evenodd" clip-rule="evenodd" d="M506.217 118.579C504.87 118.579 503.674 119.651 503.786 120.972C504.397 128.195 504.955 134.813 505.343 141.317H486.54C485.194 141.317 484.109 142.385 484.109 143.711V147.899C484.109 149.225 485.194 150.293 486.54 150.293H505.761C505.959 156.623 505.963 163.005 505.609 169.852C505.541 171.177 506.693 172.246 508.04 172.246H512.446C513.793 172.246 514.781 171.175 514.877 169.852C515.35 163.348 515.547 156.814 515.447 150.293H535.465C536.812 150.293 537.896 149.225 537.896 147.899V143.711C537.896 142.385 536.812 141.317 535.465 141.317H515.067C514.639 134.495 513.878 127.708 512.598 120.972C512.351 119.669 511.514 118.579 510.167 118.579H506.217Z" fill="white"/>
<g filter="url(#filter0_f)">
<path fill-rule="evenodd" clip-rule="evenodd" d="M374.435 11.4726C315.013 11.4726 264.711 42.0631 247.754 84.2468L257.24 90.4539C266.803 53.3265 315.375 19.8899 374.826 19.8899C439.653 19.8899 490.061 74.296 499.853 109.871L508.191 109.791C504.283 80.5805 451.27 11.4726 374.435 11.4726V11.4726Z" fill="url(#paint1_linear)"/>
</g>
<path fill-rule="evenodd" clip-rule="evenodd" d="M375.418 9.52284C317.34 9.52284 268.176 39.4215 251.603 80.6511L260.874 86.7179C270.221 50.4302 317.694 17.7498 375.8 17.7498C439.161 17.7498 488.429 70.9255 498 105.696L506.15 105.618C502.33 77.0675 450.516 9.52264 375.418 9.52264V9.52284Z" fill="url(#paint2_linear)"/>
<path d="M79.486 137.8L68.952 170H60.948L53.864 148.196L46.55 170H38.592L28.012 137.8H35.74L43.008 160.432L50.598 137.8H57.498L64.858 160.616L72.356 137.8H79.486ZM91.2803 144.884C95.1137 144.884 98.0577 145.804 100.112 147.644C102.167 149.453 103.194 152.198 103.194 155.878V170H96.4783V166.918C95.129 169.218 92.6143 170.368 88.9343 170.368C87.033 170.368 85.377 170.046 83.9663 169.402C82.5863 168.758 81.5283 167.869 80.7923 166.734C80.0563 165.599 79.6883 164.311 79.6883 162.87C79.6883 160.57 80.547 158.761 82.2643 157.442C84.0123 156.123 86.6957 155.464 90.3143 155.464H96.0183C96.0183 153.9 95.543 152.704 94.5923 151.876C93.6417 151.017 92.2157 150.588 90.3143 150.588C88.9957 150.588 87.6923 150.803 86.4043 151.232C85.147 151.631 84.0737 152.183 83.1843 152.888L80.6083 147.874C81.9577 146.923 83.5677 146.187 85.4383 145.666C87.3397 145.145 89.287 144.884 91.2803 144.884ZM90.7283 165.538C91.955 165.538 93.0437 165.262 93.9943 164.71C94.945 164.127 95.6197 163.284 96.0183 162.18V159.65H91.0963C88.1523 159.65 86.6803 160.616 86.6803 162.548C86.6803 163.468 87.033 164.204 87.7383 164.756C88.4743 165.277 89.471 165.538 90.7283 165.538ZM125.651 168.804C124.946 169.325 124.072 169.724 123.029 170C122.017 170.245 120.944 170.368 119.809 170.368C116.865 170.368 114.58 169.617 112.955 168.114C111.36 166.611 110.563 164.403 110.563 161.49V151.324H106.745V145.804H110.563V139.778H117.739V145.804H123.903V151.324H117.739V161.398C117.739 162.441 118 163.253 118.521 163.836C119.073 164.388 119.84 164.664 120.821 164.664C121.956 164.664 122.922 164.357 123.719 163.744L125.651 168.804ZM140.876 170.368C138.238 170.368 135.862 169.831 133.746 168.758C131.66 167.654 130.02 166.136 128.824 164.204C127.658 162.272 127.076 160.079 127.076 157.626C127.076 155.173 127.658 152.98 128.824 151.048C130.02 149.116 131.66 147.613 133.746 146.54C135.862 145.436 138.238 144.884 140.876 144.884C143.482 144.884 145.752 145.436 147.684 146.54C149.646 147.613 151.072 149.162 151.962 151.186L146.396 154.176C145.108 151.907 143.252 150.772 140.83 150.772C138.959 150.772 137.41 151.385 136.184 152.612C134.957 153.839 134.344 155.51 134.344 157.626C134.344 159.742 134.957 161.413 136.184 162.64C137.41 163.867 138.959 164.48 140.83 164.48C143.283 164.48 145.138 163.345 146.396 161.076L151.962 164.112C151.072 166.075 149.646 167.608 147.684 168.712C145.752 169.816 143.482 170.368 140.876 170.368ZM170.956 144.884C174.022 144.884 176.491 145.804 178.362 147.644C180.263 149.484 181.214 152.213 181.214 155.832V170H174.038V156.936C174.038 154.973 173.608 153.517 172.75 152.566C171.891 151.585 170.649 151.094 169.024 151.094C167.214 151.094 165.773 151.661 164.7 152.796C163.626 153.9 163.09 155.556 163.09 157.764V170H155.914V135.868H163.09V147.828C164.04 146.877 165.19 146.157 166.54 145.666C167.889 145.145 169.361 144.884 170.956 144.884Z" fill="white"/>
<defs>
<filter id="filter0_f" x="245.895" y="9.61365" width="264.155" height="102.116" filterUnits="userSpaceOnUse" color-interpolation-filters="sRGB">
<feFlood flood-opacity="0" result="BackgroundImageFix"/>
<feBlend mode="normal" in="SourceGraphic" in2="BackgroundImageFix" result="shape"/>
<feGaussianBlur stdDeviation="0.92949" result="effect1_foregroundBlur"/>
</filter>
<linearGradient id="paint0_linear" x1="114.075" y1="232.247" x2="275.582" y2="465.39" gradientUnits="userSpaceOnUse">
<stop stop-color="#33CCA7"/>
<stop offset="1" stop-color="#406AFF"/>
</linearGradient>
<linearGradient id="paint1_linear" x1="583.635" y1="139.383" x2="278.348" y2="50.7993" gradientUnits="userSpaceOnUse">
<stop/>
<stop offset="1" stop-opacity="0"/>
</linearGradient>
<linearGradient id="paint2_linear" x1="497.433" y1="92.8924" x2="266.893" y2="61.6413" gradientUnits="userSpaceOnUse">
<stop stop-color="#0CFFFF" stop-opacity="0.996078"/>
<stop offset="0.474454" stop-color="#0069E3" stop-opacity="0.611765"/>
<stop offset="1" stop-color="#0066E2" stop-opacity="0"/>
</linearGradient>
</defs>
</svg>
