<svg width="232" height="127" viewBox="0 0 232 127" fill="none" xmlns="http://www.w3.org/2000/svg">
<path d="M109.099 78.0922C109.181 78.1037 109.199 78.107 109.28 78.1176C110.631 78.3026 111.959 78.5478 112.975 79.0054C113.916 79.4244 114.468 79.9545 114.972 80.8995C115.739 82.3324 115.789 84.34 115.096 85.8594C114.579 86.9899 113.443 87.9379 112.406 88.4404C111.33 88.9663 110.269 89.2168 109.052 89.3567C106.924 89.5928 104.626 89.1486 102.712 88.2156C101.579 87.6582 100.195 86.6984 99.4977 85.4619C98.9845 84.5561 99.0009 83.3775 99.6252 82.5165C100.62 81.1443 102.752 80.8422 104.357 80.8995C105.581 80.9472 107.784 81.3284 108.946 81.7449C109.268 81.8621 110.456 82.3284 110.664 82.5422C110.81 82.6909 110.904 82.907 110.839 83.1068C110.573 83.925 108.6 84.3563 108.03 84.4429C106.504 84.6783 105.713 84.0967 103.979 83.4068C103.548 83.2369 102.974 83.0485 102.536 83.0077C101.749 82.9321 100.798 83.1542 100.647 84.0202C100.573 84.4665 101.092 84.8839 101.488 85.0593C102.419 85.4619 103.175 85.6067 104.09 85.6191C106.795 85.664 109.835 85.2153 112.047 83.636C112.35 83.4183 112.648 83.0995 112.651 82.6977C112.66 81.8863 111.248 81.3902 111.248 81.3902C109.758 80.7642 107.005 80.4596 105.586 80.3418C104.098 80.212 101.755 80.0178 101.193 79.9344C100.614 79.8511 99.985 79.7334 99.4836 79.507C98.9799 79.2778 98.4871 78.7647 98.3409 78.1971C98.0815 77.1738 98.4124 75.9183 98.9764 75.1008C100.455 72.9597 103.917 72.1465 106.504 71.8236C109.008 71.5097 113.056 71.5128 115.515 72.8294C115.895 73.0345 116.089 73.2252 116.009 73.6342C115.849 74.4019 115.276 74.8967 114.582 75.1135C113.854 75.347 112.347 75.438 111.686 75.48C108.721 75.6475 105.138 75.5596 102.314 76.3355C102.093 76.3991 101.711 76.503 101.586 76.6428C101.144 77.1262 102.407 77.2643 102.677 77.3196C102.758 77.339 102.773 77.3417 102.857 77.3509L109.099 78.0922ZM91.4603 64.7725C91.4603 64.7725 91.9425 64.0438 92.3466 63.491C93.0823 62.4842 94.4139 61.088 95.4166 60.2235C95.7234 59.9595 96.085 59.6605 96.085 59.6605C96.085 59.6605 95.5194 59.7194 95.1988 59.7854C94.438 59.9346 93.3225 60.6816 92.7651 61.1643C91.8453 61.9575 90.8339 63.2471 91.2915 64.3929C91.358 64.5548 91.4603 64.7725 91.4603 64.7725ZM96.5734 66.1511C98.0265 66.0501 99.3876 65.6287 100.655 64.9205C101.897 64.2199 103.725 62.8537 103.536 61.2477C103.478 60.7278 103.14 60.3354 102.714 60.1522C102.16 59.9103 101.871 59.9493 101.163 60.1613C100.648 60.3129 100.417 60.4049 99.9309 60.6849C98.5054 61.5193 96.4843 63.305 95.3871 64.7301C95.1339 65.0662 94.8774 65.442 94.6767 65.6997C94.5501 65.8585 94.4517 66.0044 94.464 66.0432C94.5078 66.2047 96.006 66.1899 96.5734 66.1511ZM92.8738 68.8889C92.724 69.0486 92.5654 69.4337 92.401 69.7125C92.3131 69.8617 92.1504 70.0537 92.0427 70.1308C91.6646 70.411 91.3442 70.424 90.9791 70.1003C90.4671 69.644 90.171 68.9384 90.15 68.252C90.1391 67.9525 90.1901 67.6211 90.1338 67.3686C90.0407 66.9422 89.6172 66.5031 89.3889 66.0955C89.1209 65.6154 88.904 64.7781 88.877 64.2376C88.785 62.5521 89.6669 60.9994 90.8124 59.7749C91.9661 58.5365 93.4753 57.5074 95.1168 56.8068C96.6684 56.1483 98.9421 55.6995 100.646 56.294C101.201 56.4855 101.973 56.9611 102.362 57.4593C102.444 57.5627 102.511 57.6745 102.596 57.7292C102.672 57.7779 102.87 57.7971 103.028 57.8263C103.571 57.9212 104.353 58.3357 104.673 58.6118C105.315 59.1699 105.667 59.7034 105.83 60.4776C106.156 62.0354 105.266 63.7444 104.252 64.7846C102.515 66.5749 100.8 67.8336 98.5786 68.7098C97.6029 69.0938 96.0832 69.4526 94.9762 69.3522C94.6324 69.3235 94.2793 69.2322 93.9445 69.2099C93.7737 69.195 93.1491 69.0327 93.0823 68.9869C92.9995 68.9229 92.8926 68.8671 92.8738 68.8889ZM94.8579 72.3427C94.9255 72.3541 95.0298 72.3847 95.1195 72.4194C95.8983 72.7179 96.2187 73.4441 96.4105 74.2417C96.8551 76.0939 97.0449 80.1915 97.1188 81.7953C97.1731 82.9992 97.203 84.1836 97.2531 85.3735C97.2955 86.3812 97.3753 87.7209 97.1668 88.665C97.0911 89.0046 96.8656 89.3995 96.5428 89.6017C96.1731 89.8401 95.3314 89.8583 94.8688 89.7622C93.7285 89.5246 93.358 88.7859 93.1953 87.6498C92.8084 84.9387 92.9947 79.6181 93.223 77.373C93.2989 76.6314 93.5761 74.2554 93.9604 73.2592C94.0917 72.9233 94.3711 72.2467 94.8579 72.3427ZM60.1685 76.8533C60.1685 76.8533 58.4714 76.9743 57.3034 77.1049C55.8173 77.2661 53.0251 77.7519 51.4133 78.3317C50.9299 78.5061 49.9478 78.9202 49.8625 79.421C49.7728 79.9401 50.0926 80.3461 50.4482 80.766C50.6539 81.0099 51.8179 82.1381 52.1443 82.4122C53.5124 83.563 56.2867 85.3378 58.3299 86.1997C59.0319 86.4923 60.1932 86.9112 60.1932 86.9112C60.1932 86.9112 60.107 83.5798 60.1224 80.2983C60.1314 78.5672 60.1685 76.8533 60.1685 76.8533ZM91.2864 78.1791C91.3836 79.074 91.1553 80.7662 91.1157 80.9894C91.0434 81.5038 90.6584 82.6905 90.5945 82.8352C90.2837 83.5564 89.9772 84.1473 89.6525 84.7367C89.096 85.7457 87.7727 87.3454 86.9871 88.03C84.0659 90.5739 79.5437 92.0222 75.6641 92.4993C73.0317 92.8197 70.0068 92.7727 67.2174 92.2527C66.2574 92.0768 64.8288 91.7451 64.8288 91.7451C64.8288 91.7451 64.8335 92.3205 64.7877 92.7253C64.7655 92.9099 64.6275 93.3959 64.5501 93.5534C64.3473 93.9755 64.0143 94.1933 63.5301 94.287C62.9457 94.3962 62.3259 94.4327 61.7859 94.2001C60.8993 93.8242 60.581 92.9885 60.4265 92.0246C60.3015 91.2538 60.1707 89.9137 60.1707 89.9137C60.1707 89.9137 59.5074 89.5973 58.9544 89.3192C57.2557 88.4759 55.6423 87.4542 54.2308 86.4034C53.8397 86.1093 52.1597 84.6918 51.7889 84.3398C50.7491 83.3453 49.8137 82.3559 49.1021 81.0863C48.549 80.0944 48.3897 79.2141 48.8104 78.1632C49.3906 76.6984 51.4751 75.5955 52.9018 74.9669C53.9489 74.5012 57.205 73.43 58.5575 73.2314C59.1963 73.1394 60.1872 72.9606 60.2481 72.9207C60.273 72.9015 60.2903 72.8852 60.3083 72.8645C60.3395 72.8202 60.3921 71.3702 60.3819 70.8397C60.3687 70.3182 60.765 66.8928 60.8924 66.1685C60.9588 65.7768 61.2533 64.2688 61.5539 63.8731C61.7505 63.6056 62.0982 63.6272 62.3817 63.8028C63.933 64.7747 64.4043 68.1452 64.5197 69.8601C64.5887 70.905 64.623 72.4767 64.623 72.4767C64.623 72.4767 66.4026 72.4237 67.4973 72.4549C68.5611 72.4799 69.7336 72.649 70.8378 72.8263C72.2514 73.0546 75.0067 73.6602 76.5869 74.4673C77.8882 75.132 79.1062 76.2518 79.5008 77.4369C79.8674 78.5233 79.8125 79.2752 79.2541 80.2557C78.6262 81.3628 77.4385 82.1857 76.2343 82.2545C75.8759 82.2753 74.5272 82.0947 74.1121 81.771C73.9494 81.6419 73.9578 81.4091 74.0752 81.2511C74.1198 81.1957 74.7502 80.8579 75.1223 80.6609C75.3089 80.5587 75.4633 80.4485 75.6089 80.3148C75.9181 80.0405 76.1963 79.7385 76.1653 79.3846C76.1225 78.9252 75.64 78.6418 75.1801 78.4596C73.0222 77.5959 68.7138 76.879 66.6318 76.7549C65.8169 76.7067 64.6577 76.6654 64.6577 76.6654L64.9028 88.2485C64.9028 88.2485 65.8611 88.4324 66.6163 88.5557C67.0497 88.6219 68.8858 88.7885 69.3738 88.8006C73.089 88.8994 77.2355 88.5642 80.645 86.9432C82.1419 86.2336 83.5151 85.3499 84.5547 84.1538C85.925 82.5711 86.6426 80.405 86.4527 78.1425C86.2445 75.6716 84.5184 72.7385 83.1401 70.9525C79.4983 66.2339 73.2558 62.3524 67.7637 60.0768C62.1567 57.7551 56.6152 56.4194 50.6645 56.1958C49.1305 56.1385 45.7857 56.2165 44.0949 56.6877C43.8534 56.7563 43.6099 56.8382 43.3857 56.889C43.2085 56.9327 42.9294 57.0508 42.8527 57.1133C42.8103 57.1479 42.7683 57.1958 42.7683 57.1958C42.7683 57.1958 42.8725 57.2538 42.9721 57.2963C43.1512 57.375 43.9051 57.4222 44.2953 57.4941C44.6443 57.5603 45.0078 57.745 45.1516 58.0026C45.2883 58.2476 45.3054 58.4407 45.142 58.6451C44.7589 59.1144 43.317 59.0353 42.682 58.934C42.0222 58.8281 41.2006 58.6246 41.0497 58.0458C40.8747 57.3641 41.1961 56.6958 41.5434 56.0781C42.241 54.842 43.2403 54.1991 44.7037 53.7965C46.7823 53.2203 49.4068 52.8174 51.3695 52.7418C55.8119 52.5727 60.0164 53.3554 64.3206 54.672C66.784 55.4225 70.0092 56.6818 72.3703 57.8272C74.0646 58.6502 76.7339 60.1637 78.2335 61.1528C78.7064 61.4673 81.4741 63.5161 81.904 63.8762C82.8008 64.6149 83.9738 65.6767 84.8232 66.5259C86.4666 68.1666 88.5107 70.6817 89.5037 72.6779C89.7426 73.1559 89.9277 73.6262 90.236 74.1802C90.342 74.37 90.7956 75.5052 90.8711 75.8332C90.9458 76.1576 91.0553 76.6346 91.0707 76.6535C91.0926 76.8277 91.3029 77.8031 91.2864 78.1791ZM147.135 75.618C145.054 76.1013 139.584 76.3697 139.584 76.3697L138.894 78.5468C138.894 78.5468 141.628 78.3116 143.616 78.5209C143.616 78.5209 144.261 78.4455 144.337 79.258C144.362 80.0157 144.273 80.8288 144.273 80.8288C144.273 80.8288 144.231 81.3207 143.54 81.4458C142.79 81.5717 137.647 81.7721 137.647 81.7721L136.814 84.6099C136.814 84.6099 136.505 85.2659 137.198 85.0787C137.843 84.9049 143.231 83.8861 143.933 84.0327C144.685 84.2209 145.518 85.2312 145.277 86.1518C144.99 87.2929 139.612 90.7487 136.337 90.5075C136.337 90.5075 134.616 90.6193 133.161 88.2792C131.806 86.0492 133.674 81.8268 133.674 81.8268C133.674 81.8268 132.818 79.8557 133.439 79.1875C133.439 79.1875 133.808 78.8499 134.884 78.7736L136.203 76.026C136.203 76.026 134.701 76.1301 133.808 75.0173C132.976 73.9615 132.906 73.4762 133.544 73.1847C134.226 72.8453 140.479 71.6955 144.782 71.8414C144.782 71.8414 146.277 71.6934 147.574 74.3067C147.574 74.3068 148.203 75.3636 147.135 75.618ZM130.951 86.1825C130.4 87.4893 128.943 88.8838 127.133 88.017C125.347 87.1483 122.502 81.2811 122.502 81.2811C122.502 81.2811 121.422 79.0932 121.214 79.1496C121.214 79.1496 120.98 78.7224 120.837 81.1132C120.688 83.4938 120.866 88.1359 119.923 88.8666C119.03 89.5993 117.949 89.3076 117.389 88.4516C116.879 87.6083 116.667 85.6046 116.945 82.0853C117.272 78.5593 118.085 74.8078 119.123 73.6396C120.161 72.4793 120.993 73.3216 121.318 73.6272C121.318 73.6272 122.706 74.8942 124.994 78.6148L125.397 79.303C125.397 79.303 127.477 82.818 127.694 82.8098C127.694 82.8098 127.864 82.9714 128.015 82.8553C128.234 82.7925 128.146 81.6654 128.146 81.6654C128.146 81.6654 127.714 77.8347 125.817 71.3508C125.817 71.3508 125.53 70.5423 125.724 69.7847C125.917 69.0191 126.679 69.3785 126.679 69.3785C126.679 69.3785 129.619 70.8678 131.046 75.6904C132.463 80.5144 131.511 84.8659 130.951 86.1825ZM162.593 83.2942C161.254 85.6467 157.476 90.5728 152.455 89.4097C150.797 93.4608 149.404 97.5588 148.608 103.691C148.608 103.691 148.432 104.882 147.45 104.469C146.475 104.125 144.871 102.493 144.546 100.236C144.197 97.2708 145.507 92.2581 148.185 86.5104C147.404 85.2312 146.872 83.4035 147.328 80.8009C147.328 80.8009 148 75.9681 152.818 71.6123C152.818 71.6123 153.395 71.1098 153.73 71.2645C154.099 71.4203 153.928 72.993 153.635 73.7576C153.331 74.5179 151.187 78.2587 151.187 78.2587C151.187 78.2587 149.849 80.786 150.225 82.7793C152.752 78.8656 158.495 70.9736 162.055 73.4623C163.251 74.3244 163.802 76.1994 163.802 78.2197C163.803 79.9944 163.378 81.8806 162.593 83.2942ZM161.554 77.096C161.554 77.096 161.356 75.54 159.846 77.2542C158.547 78.7008 156.205 81.411 154.319 85.0923C156.297 84.8685 158.206 83.787 158.783 83.2362C159.721 82.3976 161.906 80.1224 161.554 77.096ZM190.253 76.7417H181.05C180.867 73.5906 180.489 70.5212 179.896 67.3599C179.835 67.0328 179.552 66.7955 179.223 66.7955H177.102C176.917 66.7955 176.743 66.8791 176.623 67.0249C176.503 67.1732 176.456 67.3618 176.491 67.5464C177.094 70.6055 177.476 73.6163 177.664 76.7448H168.811C168.399 76.7448 168.063 77.0813 168.063 77.4952V79.423C168.063 79.8378 168.399 80.1768 168.811 80.1768H177.791C177.797 80.6525 177.801 81.0786 177.801 81.4783C177.801 84.2566 177.682 86.5452 177.404 89.1279C177.382 89.3275 177.447 89.5263 177.582 89.6727C177.712 89.8203 177.899 89.9045 178.094 89.9045H180.062C180.446 89.9045 180.764 89.6135 180.802 89.2282C181.071 86.628 181.186 84.311 181.186 81.4781C181.186 81.0799 181.182 80.6524 181.176 80.1766H190.253C190.664 80.1766 191 79.8377 191 79.4228V77.4951C191 77.0794 190.664 76.7417 190.253 76.7417Z" fill="#101C50"/>
<path d="M67.2079 50.9095C67.0775 51.1048 67.046 51.3443 67.1209 51.5694C67.199 51.7939 67.369 51.9647 67.5886 52.0422L69.2381 52.6015C69.3379 52.633 69.437 52.6494 69.5342 52.6494C69.8399 52.6494 70.1269 52.497 70.2968 52.2409C75.7001 44.2436 83.0129 37.5849 91.4458 32.9847C100.152 28.2348 110.016 25.7224 119.974 25.7224C132.002 25.7224 143.607 29.2971 153.536 36.0593C163.224 42.6553 170.748 51.8579 175.295 62.6725C175.431 62.9962 175.745 63.2049 176.092 63.2049H178.062C178.289 63.2049 178.503 63.0897 178.631 62.8985C178.76 62.7078 178.784 62.4656 178.699 62.2511C174.01 50.6232 166.082 40.7108 155.768 33.5893C145.21 26.2986 132.833 22.4442 119.974 22.4442C98.7158 22.4442 78.9896 33.0858 67.2079 50.9095Z" fill="url(#paint0_linear)"/>
<defs>
<linearGradient id="paint0_linear" x1="180.576" y1="48.9467" x2="69.3958" y2="34.0264" gradientUnits="userSpaceOnUse">
<stop stop-color="#101C50"/>
<stop offset="0.236" stop-color="#0D267A"/>
<stop offset="0.4973" stop-color="#085AA4"/>
<stop offset="0.6549" stop-color="#058BBF"/>
<stop offset="1" stop-color="#B1FFFF"/>
</linearGradient>
</defs>
</svg>
