<svg width="671" height="336" viewBox="0 0 671 336" fill="none" xmlns="http://www.w3.org/2000/svg">
<path d="M352 259.5C352 290.152 327.152 315 296.5 315C265.848 315 241 290.152 241 259.5C241 228.848 265.848 204 296.5 204C327.152 204 352 228.848 352 259.5Z" fill="url(#paint0_radial)"/>
<path fill-rule="evenodd" clip-rule="evenodd" d="M313.577 311.264C313.577 308.022 310.949 305.394 307.707 305.394C304.465 305.394 301.837 308.022 301.837 311.264V327.808C301.837 331.05 299.208 333.678 295.966 333.678C292.724 333.678 290.096 331.05 290.096 327.808V311.264C290.096 308.022 287.468 305.394 284.226 305.394C280.984 305.394 278.356 308.022 278.356 311.264V322C278.356 325.242 275.728 327.87 272.486 327.87C269.244 327.87 266.615 325.242 266.615 322V305.394V304.248C266.615 294.817 262.249 286.041 258.427 277.418C256.144 272.267 254.875 266.565 254.875 260.567C254.875 237.578 273.511 218.942 296.5 218.942C319.489 218.942 338.125 237.578 338.125 260.567C338.125 267.07 336.634 273.225 333.975 278.708C329.852 287.209 325.317 295.946 325.317 305.394V322C325.317 325.242 322.689 327.87 319.447 327.87C316.205 327.87 313.577 325.242 313.577 322V311.264Z" fill="url(#paint1_linear)"/>
<mask id="mask0" mask-type="alpha" maskUnits="userSpaceOnUse" x="254" y="220" width="85" height="115">
<path fill-rule="evenodd" clip-rule="evenodd" d="M313.577 312.332C313.577 309.09 310.949 306.462 307.707 306.462C304.465 306.462 301.837 309.09 301.837 312.332V328.875C301.837 332.117 299.208 334.745 295.966 334.745C292.724 334.745 290.096 332.117 290.096 328.875V312.332C290.096 309.09 287.468 306.462 284.226 306.462C280.984 306.462 278.356 309.09 278.356 312.332V328.875C278.356 332.117 275.728 334.745 272.486 334.745C269.244 334.745 266.615 332.117 266.615 328.875V306.462V305.315C266.615 295.884 262.249 287.108 258.427 278.486C256.144 273.334 254.875 267.633 254.875 261.635C254.875 238.646 273.511 220.01 296.5 220.01C319.489 220.01 338.125 238.646 338.125 261.635C338.125 268.137 336.634 274.292 333.975 279.775C329.852 288.277 325.317 297.013 325.317 306.462V328.875C325.317 332.117 322.689 334.745 319.447 334.745C316.205 334.745 313.577 332.117 313.577 328.875V312.332Z" fill="url(#paint2_linear)"/>
</mask>
<g mask="url(#mask0)">
<path d="M345.596 280.846C345.596 287.92 339.862 293.654 332.788 293.654C325.715 293.654 319.98 287.92 319.98 280.846C319.98 273.773 325.715 268.038 332.788 268.038C339.862 268.038 345.596 273.773 345.596 280.846Z" fill="url(#paint3_linear)"/>
<path d="M274.087 280.846C274.087 287.92 268.353 293.654 261.279 293.654C254.206 293.654 248.472 287.92 248.472 280.846C248.472 273.773 254.206 268.038 261.279 268.038C268.353 268.038 274.087 273.773 274.087 280.846Z" fill="url(#paint4_linear)"/>
<path fill-rule="evenodd" clip-rule="evenodd" d="M303.092 274.91C303.428 275.395 303.309 276.064 302.799 276.36C298.693 278.74 293.617 278.74 289.511 276.36C289.001 276.064 288.882 275.395 289.217 274.91C289.553 274.426 290.216 274.31 290.73 274.598C294.098 276.481 298.212 276.481 301.579 274.598C302.094 274.31 302.757 274.426 303.092 274.91Z" fill="black"/>
<path fill-rule="evenodd" clip-rule="evenodd" d="M302.654 275.214C302.493 274.981 302.143 274.894 301.84 275.064C298.311 277.037 294 277.037 290.471 275.064C290.168 274.894 289.818 274.981 289.657 275.214C289.482 275.467 289.563 275.773 289.779 275.898C293.719 278.182 298.592 278.182 302.532 275.898C302.748 275.773 302.829 275.467 302.654 275.214ZM301.32 274.132C302.046 273.726 303.022 273.87 303.532 274.607C304.028 275.323 303.871 276.355 303.067 276.821C298.796 279.298 293.515 279.298 289.244 276.821C288.44 276.355 288.283 275.323 288.779 274.607C289.289 273.87 290.265 273.726 290.991 274.132C294.197 275.925 298.114 275.925 301.32 274.132Z" fill="black"/>
<path d="M277.306 234.146C273.885 236.515 271.802 239.397 270.767 237.903C269.732 236.409 271.591 233.026 275.011 230.656C278.431 228.287 282.118 227.83 283.153 229.324C284.188 230.818 280.726 231.777 277.306 234.146Z" fill="#FFFBFC" fill-opacity="0.47"/>
<path d="M288.946 228.072C287.712 228.73 286.076 229.225 285.47 228.089C284.864 226.953 285.494 226.379 286.728 225.72C287.962 225.062 289.334 224.569 289.939 225.705C290.545 226.84 290.18 227.414 288.946 228.072Z" fill="#FFFBFC" fill-opacity="0.47"/>
<path fill-rule="evenodd" clip-rule="evenodd" d="M296.756 256.245C304.803 256.696 313.842 259.884 320.168 256.642C326.519 253.388 323.711 247.551 322.991 242.802C322.328 238.428 321.185 234.098 316.272 230.933C310.765 227.385 303.423 224.205 294.994 224.767C286.644 225.323 280.225 229.52 275.301 233.661C271.016 237.265 268.918 241.593 270.025 245.768C271.018 249.516 275.536 252.367 280.808 254.434C285.413 256.239 291.121 255.929 296.756 256.245Z" fill="url(#paint5_radial)" fill-opacity="0.55"/>
<path d="M330.655 264.837C330.655 271.321 325.398 276.577 318.914 276.577C312.43 276.577 307.174 271.321 307.174 264.837C307.174 258.352 312.43 253.096 318.914 253.096C325.398 253.096 330.655 258.352 330.655 264.837Z" fill="white"/>
<path d="M327.129 264.985C327.129 269.441 323.517 273.052 319.062 273.052C314.607 273.052 310.995 269.441 310.995 264.985C310.995 260.53 314.607 256.919 319.062 256.919C323.517 256.919 327.129 260.53 327.129 264.985Z" fill="black"/>
<path d="M285.827 264.837C285.827 271.321 280.571 276.577 274.087 276.577C267.603 276.577 262.347 271.321 262.347 264.837C262.347 258.352 267.603 253.096 274.087 253.096C280.571 253.096 285.827 258.352 285.827 264.837Z" fill="white"/>
<path d="M282.303 264.985C282.303 269.441 278.691 273.052 274.236 273.052C269.781 273.052 266.169 269.441 266.169 264.985C266.169 260.53 269.781 256.919 274.236 256.919C278.691 256.919 282.303 260.53 282.303 264.985Z" fill="black"/>
</g>
<path d="M54.5888 292.796L43.2788 324H34.5788L27.5608 304.628L20.3108 324H11.6108L0.358781 292.796H8.88478L16.2508 313.908L23.9068 292.796H31.5628L38.9868 313.908L46.5848 292.796H54.5888ZM58.7951 292.796H67.8431V324H58.7951V292.796ZM63.3191 288.446C61.6565 288.446 60.3031 287.963 59.2591 286.996C58.2151 286.029 57.6931 284.831 57.6931 283.4C57.6931 281.969 58.2151 280.771 59.2591 279.804C60.3031 278.837 61.6565 278.354 63.3191 278.354C64.9818 278.354 66.3351 278.818 67.3791 279.746C68.4231 280.674 68.9451 281.834 68.9451 283.226C68.9451 284.734 68.4231 285.991 67.3791 286.996C66.3351 287.963 64.9818 288.446 63.3191 288.446ZM96.3665 322.492C95.4771 323.149 94.3751 323.652 93.0605 324C91.7845 324.309 90.4311 324.464 89.0005 324.464C85.2885 324.464 82.4078 323.517 80.3585 321.622C78.3478 319.727 77.3425 316.943 77.3425 313.27V300.452H72.5285V293.492H77.3425V285.894H86.3905V293.492H94.1625V300.452H86.3905V313.154C86.3905 314.469 86.7191 315.493 87.3765 316.228C88.0725 316.924 89.0391 317.272 90.2765 317.272C91.7071 317.272 92.9251 316.885 93.9305 316.112L96.3665 322.492ZM120.412 292.332C124.278 292.332 127.391 293.492 129.75 295.812C132.147 298.132 133.346 301.573 133.346 306.136V324H124.298V307.528C124.298 305.053 123.756 303.217 122.674 302.018C121.591 300.781 120.025 300.162 117.976 300.162C115.694 300.162 113.877 300.877 112.524 302.308C111.17 303.7 110.494 305.788 110.494 308.572V324H101.446V280.964H110.494V296.044C111.692 294.845 113.142 293.937 114.844 293.318C116.545 292.661 118.401 292.332 120.412 292.332ZM458.627 293.492H466.631V300.452H458.859V324H449.811V300.452H444.997V293.492H449.811V292.1C449.811 288.543 450.855 285.72 452.943 283.632C455.07 281.544 458.047 280.5 461.875 280.5C463.229 280.5 464.505 280.655 465.703 280.964C466.941 281.235 467.965 281.641 468.777 282.182L466.399 288.736C465.355 288.001 464.137 287.634 462.745 287.634C460 287.634 458.627 289.142 458.627 292.158V293.492ZM485.59 324.464C482.304 324.464 479.346 323.787 476.716 322.434C474.126 321.042 472.096 319.128 470.626 316.692C469.157 314.256 468.422 311.491 468.422 308.398C468.422 305.305 469.157 302.54 470.626 300.104C472.096 297.668 474.126 295.773 476.716 294.42C479.346 293.028 482.304 292.332 485.59 292.332C488.877 292.332 491.816 293.028 494.406 294.42C496.997 295.773 499.027 297.668 500.496 300.104C501.966 302.54 502.7 305.305 502.7 308.398C502.7 311.491 501.966 314.256 500.496 316.692C499.027 319.128 496.997 321.042 494.406 322.434C491.816 323.787 488.877 324.464 485.59 324.464ZM485.59 317.04C487.91 317.04 489.805 316.267 491.274 314.72C492.782 313.135 493.536 311.027 493.536 308.398C493.536 305.769 492.782 303.681 491.274 302.134C489.805 300.549 487.91 299.756 485.59 299.756C483.27 299.756 481.356 300.549 479.848 302.134C478.34 303.681 477.586 305.769 477.586 308.398C477.586 311.027 478.34 313.135 479.848 314.72C481.356 316.267 483.27 317.04 485.59 317.04ZM517.39 296.914C518.473 295.406 519.923 294.265 521.74 293.492C523.596 292.719 525.723 292.332 528.12 292.332V300.684C527.115 300.607 526.438 300.568 526.09 300.568C523.5 300.568 521.47 301.303 520 302.772C518.531 304.203 517.796 306.368 517.796 309.268V324H508.748V292.796H517.39V296.914ZM560.071 293.492H568.075V300.452H560.303V324H551.255V300.452H546.441V293.492H551.255V292.1C551.255 288.543 552.299 285.72 554.387 283.632C556.513 281.544 559.491 280.5 563.319 280.5C564.672 280.5 565.948 280.655 567.147 280.964C568.384 281.235 569.409 281.641 570.221 282.182L567.843 288.736C566.799 288.001 565.581 287.634 564.189 287.634C561.443 287.634 560.071 289.142 560.071 292.158V293.492ZM585.869 296.914C586.951 295.406 588.401 294.265 590.219 293.492C592.075 292.719 594.201 292.332 596.599 292.332V300.684C595.593 300.607 594.917 300.568 594.569 300.568C591.978 300.568 589.948 301.303 588.479 302.772C587.009 304.203 586.275 306.368 586.275 309.268V324H577.227V292.796H585.869V296.914ZM632.262 308.514C632.262 308.63 632.204 309.442 632.088 310.95H608.482C608.907 312.883 609.912 314.411 611.498 315.532C613.083 316.653 615.055 317.214 617.414 317.214C619.038 317.214 620.468 316.982 621.706 316.518C622.982 316.015 624.161 315.242 625.244 314.198L630.058 319.418C627.119 322.782 622.827 324.464 617.182 324.464C613.663 324.464 610.55 323.787 607.844 322.434C605.137 321.042 603.049 319.128 601.58 316.692C600.11 314.256 599.376 311.491 599.376 308.398C599.376 305.343 600.091 302.598 601.522 300.162C602.991 297.687 604.982 295.773 607.496 294.42C610.048 293.028 612.89 292.332 616.022 292.332C619.076 292.332 621.841 292.989 624.316 294.304C626.79 295.619 628.724 297.513 630.116 299.988C631.546 302.424 632.262 305.266 632.262 308.514ZM616.08 299.176C614.03 299.176 612.31 299.756 610.918 300.916C609.526 302.076 608.675 303.661 608.366 305.672H623.736C623.426 303.7 622.576 302.134 621.184 300.974C619.792 299.775 618.09 299.176 616.08 299.176ZM668.851 308.514C668.851 308.63 668.793 309.442 668.677 310.95H645.071C645.497 312.883 646.502 314.411 648.087 315.532C649.673 316.653 651.645 317.214 654.003 317.214C655.627 317.214 657.058 316.982 658.295 316.518C659.571 316.015 660.751 315.242 661.833 314.198L666.647 319.418C663.709 322.782 659.417 324.464 653.771 324.464C650.253 324.464 647.14 323.787 644.433 322.434C641.727 321.042 639.639 319.128 638.169 316.692C636.7 314.256 635.965 311.491 635.965 308.398C635.965 305.343 636.681 302.598 638.111 300.162C639.581 297.687 641.572 295.773 644.085 294.42C646.637 293.028 649.479 292.332 652.611 292.332C655.666 292.332 658.431 292.989 660.905 294.304C663.38 295.619 665.313 297.513 666.705 299.988C668.136 302.424 668.851 305.266 668.851 308.514ZM652.669 299.176C650.62 299.176 648.899 299.756 647.507 300.916C646.115 302.076 645.265 303.661 644.955 305.672H660.325C660.016 303.7 659.165 302.134 657.773 300.974C656.381 299.775 654.68 299.176 652.669 299.176Z" fill="white"/>
<path d="M166.093 324.696C163.348 324.696 160.815 324.193 158.495 323.188C156.214 322.144 154.338 320.675 152.869 318.78L158.089 312.516C160.293 315.493 162.806 316.982 165.629 316.982C169.457 316.982 171.371 314.739 171.371 310.254V290.94H157.103V283.4H180.709V309.732C180.709 314.72 179.472 318.471 176.997 320.984C174.522 323.459 170.888 324.696 166.093 324.696ZM219.918 308.514C219.918 308.63 219.86 309.442 219.744 310.95H196.138C196.563 312.883 197.568 314.411 199.154 315.532C200.739 316.653 202.711 317.214 205.07 317.214C206.694 317.214 208.124 316.982 209.362 316.518C210.638 316.015 211.817 315.242 212.9 314.198L217.714 319.418C214.775 322.782 210.483 324.464 204.838 324.464C201.319 324.464 198.206 323.787 195.5 322.434C192.793 321.042 190.705 319.128 189.236 316.692C187.766 314.256 187.032 311.491 187.032 308.398C187.032 305.343 187.747 302.598 189.178 300.162C190.647 297.687 192.638 295.773 195.152 294.42C197.704 293.028 200.546 292.332 203.678 292.332C206.732 292.332 209.497 292.989 211.972 294.304C214.446 295.619 216.38 297.513 217.772 299.988C219.202 302.424 219.918 305.266 219.918 308.514ZM203.736 299.176C201.686 299.176 199.966 299.756 198.574 300.916C197.182 302.076 196.331 303.661 196.022 305.672H211.392C211.082 303.7 210.232 302.134 208.84 300.974C207.448 299.775 205.746 299.176 203.736 299.176ZM225.942 280.964H234.99V324H225.942V280.964ZM243.387 280.964H252.435V324H243.387V280.964ZM291.804 292.796L277.71 325.914C276.28 329.51 274.501 332.043 272.374 333.512C270.286 334.981 267.754 335.716 264.776 335.716C263.152 335.716 261.548 335.465 259.962 334.962C258.377 334.459 257.082 333.763 256.076 332.874L259.382 326.436C260.078 327.055 260.871 327.538 261.76 327.886C262.688 328.234 263.597 328.408 264.486 328.408C265.724 328.408 266.729 328.099 267.502 327.48C268.276 326.9 268.972 325.914 269.59 324.522L269.706 324.232L256.192 292.796H265.53L274.288 313.966L283.104 292.796H291.804ZM342.372 302.888C344.692 303.623 346.509 304.86 347.824 306.6C349.139 308.301 349.796 310.409 349.796 312.922C349.796 316.479 348.404 319.225 345.62 321.158C342.875 323.053 338.853 324 333.556 324H312.56V283.4H332.396C337.345 283.4 341.135 284.347 343.764 286.242C346.432 288.137 347.766 290.708 347.766 293.956C347.766 295.928 347.283 297.687 346.316 299.234C345.388 300.781 344.073 301.999 342.372 302.888ZM321.898 290.476V300.046H331.236C333.556 300.046 335.315 299.64 336.514 298.828C337.713 298.016 338.312 296.817 338.312 295.232C338.312 293.647 337.713 292.467 336.514 291.694C335.315 290.882 333.556 290.476 331.236 290.476H321.898ZM332.86 316.924C335.335 316.924 337.191 316.518 338.428 315.706C339.704 314.894 340.342 313.637 340.342 311.936C340.342 308.572 337.848 306.89 332.86 306.89H321.898V316.924H332.86ZM371.12 324.464C367.833 324.464 364.875 323.787 362.246 322.434C359.655 321.042 357.625 319.128 356.156 316.692C354.686 314.256 353.952 311.491 353.952 308.398C353.952 305.305 354.686 302.54 356.156 300.104C357.625 297.668 359.655 295.773 362.246 294.42C364.875 293.028 367.833 292.332 371.12 292.332C374.406 292.332 377.345 293.028 379.936 294.42C382.526 295.773 384.556 297.668 386.026 300.104C387.495 302.54 388.23 305.305 388.23 308.398C388.23 311.491 387.495 314.256 386.026 316.692C384.556 319.128 382.526 321.042 379.936 322.434C377.345 323.787 374.406 324.464 371.12 324.464ZM371.12 317.04C373.44 317.04 375.334 316.267 376.804 314.72C378.312 313.135 379.066 311.027 379.066 308.398C379.066 305.769 378.312 303.681 376.804 302.134C375.334 300.549 373.44 299.756 371.12 299.756C368.8 299.756 366.886 300.549 365.378 302.134C363.87 303.681 363.116 305.769 363.116 308.398C363.116 311.027 363.87 313.135 365.378 314.72C366.886 316.267 368.8 317.04 371.12 317.04ZM409.126 324.464C405.839 324.464 402.881 323.787 400.252 322.434C397.661 321.042 395.631 319.128 394.162 316.692C392.692 314.256 391.958 311.491 391.958 308.398C391.958 305.305 392.692 302.54 394.162 300.104C395.631 297.668 397.661 295.773 400.252 294.42C402.881 293.028 405.839 292.332 409.126 292.332C412.412 292.332 415.351 293.028 417.942 294.42C420.532 295.773 422.562 297.668 424.032 300.104C425.501 302.54 426.236 305.305 426.236 308.398C426.236 311.491 425.501 314.256 424.032 316.692C422.562 319.128 420.532 321.042 417.942 322.434C415.351 323.787 412.412 324.464 409.126 324.464ZM409.126 317.04C411.446 317.04 413.34 316.267 414.81 314.72C416.318 313.135 417.072 311.027 417.072 308.398C417.072 305.769 416.318 303.681 414.81 302.134C413.34 300.549 411.446 299.756 409.126 299.756C406.806 299.756 404.892 300.549 403.384 302.134C401.876 303.681 401.122 305.769 401.122 308.398C401.122 311.027 401.876 313.135 403.384 314.72C404.892 316.267 406.806 317.04 409.126 317.04Z" fill="url(#paint6_linear)"/>
<path d="M127.486 133.8L116.952 166H108.948L101.864 144.196L94.55 166H86.592L76.012 133.8H83.74L91.008 156.432L98.598 133.8H105.498L112.858 156.616L120.356 133.8H127.486ZM139.28 140.884C143.114 140.884 146.058 141.804 148.112 143.644C150.167 145.453 151.194 148.198 151.194 151.878V166H144.478V162.918C143.129 165.218 140.614 166.368 136.934 166.368C135.033 166.368 133.377 166.046 131.966 165.402C130.586 164.758 129.528 163.869 128.792 162.734C128.056 161.599 127.688 160.311 127.688 158.87C127.688 156.57 128.547 154.761 130.264 153.442C132.012 152.123 134.696 151.464 138.314 151.464H144.018C144.018 149.9 143.543 148.704 142.592 147.876C141.642 147.017 140.216 146.588 138.314 146.588C136.996 146.588 135.692 146.803 134.404 147.232C133.147 147.631 132.074 148.183 131.184 148.888L128.608 143.874C129.958 142.923 131.568 142.187 133.438 141.666C135.34 141.145 137.287 140.884 139.28 140.884ZM138.728 161.538C139.955 161.538 141.044 161.262 141.994 160.71C142.945 160.127 143.62 159.284 144.018 158.18V155.65H139.096C136.152 155.65 134.68 156.616 134.68 158.548C134.68 159.468 135.033 160.204 135.738 160.756C136.474 161.277 137.471 161.538 138.728 161.538ZM173.651 164.804C172.946 165.325 172.072 165.724 171.029 166C170.017 166.245 168.944 166.368 167.809 166.368C164.865 166.368 162.58 165.617 160.955 164.114C159.36 162.611 158.563 160.403 158.563 157.49V147.324H154.745V141.804H158.563V135.778H165.739V141.804H171.903V147.324H165.739V157.398C165.739 158.441 166 159.253 166.521 159.836C167.073 160.388 167.84 160.664 168.821 160.664C169.956 160.664 170.922 160.357 171.719 159.744L173.651 164.804ZM188.876 166.368C186.238 166.368 183.862 165.831 181.746 164.758C179.66 163.654 178.02 162.136 176.824 160.204C175.658 158.272 175.076 156.079 175.076 153.626C175.076 151.173 175.658 148.98 176.824 147.048C178.02 145.116 179.66 143.613 181.746 142.54C183.862 141.436 186.238 140.884 188.876 140.884C191.482 140.884 193.752 141.436 195.684 142.54C197.646 143.613 199.072 145.162 199.962 147.186L194.396 150.176C193.108 147.907 191.252 146.772 188.83 146.772C186.959 146.772 185.41 147.385 184.184 148.612C182.957 149.839 182.344 151.51 182.344 153.626C182.344 155.742 182.957 157.413 184.184 158.64C185.41 159.867 186.959 160.48 188.83 160.48C191.283 160.48 193.138 159.345 194.396 157.076L199.962 160.112C199.072 162.075 197.646 163.608 195.684 164.712C193.752 165.816 191.482 166.368 188.876 166.368ZM218.956 140.884C222.022 140.884 224.491 141.804 226.362 143.644C228.263 145.484 229.214 148.213 229.214 151.832V166H222.038V152.936C222.038 150.973 221.608 149.517 220.75 148.566C219.891 147.585 218.649 147.094 217.024 147.094C215.214 147.094 213.773 147.661 212.7 148.796C211.626 149.9 211.09 151.556 211.09 153.764V166H203.914V131.868H211.09V143.828C212.04 142.877 213.19 142.157 214.54 141.666C215.889 141.145 217.361 140.884 218.956 140.884Z" fill="white"/>
<path d="M489.936 137.869C485.089 139.007 472.288 139.639 472.288 139.639L470.714 144.778C470.714 144.778 477.052 144.23 481.692 144.693C481.692 144.693 483.183 144.567 483.349 146.378C483.432 148.232 483.225 150.17 483.225 150.17C483.225 150.17 483.1 151.307 481.568 151.602C479.786 151.897 467.773 152.444 467.773 152.444L465.826 159.1C465.826 159.1 465.122 160.616 466.737 160.195C468.228 159.774 480.822 157.331 482.479 157.668C484.219 158.089 486.207 160.532 485.627 162.723C484.964 165.376 472.371 173.548 464.749 173.001C464.749 173.001 460.73 173.253 457.375 167.735C454.144 162.47 458.493 152.571 458.493 152.571C458.493 152.571 456.546 147.937 457.996 146.252C457.996 146.252 458.825 145.536 461.31 145.325L464.417 138.838C464.417 138.838 460.896 139.049 458.825 136.437C456.919 133.91 456.754 132.814 458.245 132.14C459.819 131.298 474.401 128.644 484.426 128.981C484.426 128.981 487.947 128.56 491.054 134.752C491.054 134.752 492.463 137.28 489.977 137.869H489.936ZM452.155 162.807C450.912 165.882 447.474 169.125 443.332 167.146C439.106 165.124 432.437 151.307 432.437 151.307C432.437 151.307 429.951 146.168 429.454 146.336C429.454 146.336 428.915 145.325 428.625 150.97C428.211 156.572 428.708 167.483 426.43 169.21C424.359 170.895 421.873 170.178 420.464 168.199C419.305 166.219 418.807 161.459 419.47 153.16C420.216 144.862 422.08 136.016 424.441 133.278C426.927 130.498 428.915 132.52 429.661 133.278C429.661 133.278 432.851 136.227 438.236 144.946L439.148 146.547C439.148 146.547 444.036 154.845 444.533 154.803C444.533 154.803 444.947 155.224 445.279 154.888C445.776 154.761 445.61 152.065 445.61 152.065C445.61 152.065 444.699 143.093 440.142 127.928C440.142 127.928 439.479 125.991 439.935 124.137C440.349 122.452 442.131 123.295 442.131 123.295C442.131 123.295 449.007 126.665 452.363 138.038C455.677 149.412 453.44 159.732 452.197 162.807L452.155 162.807ZM418.435 133.615C417.772 134.795 417.482 136.437 414.624 136.901C414.624 136.901 386.868 138.881 385.501 140.86C385.501 140.86 384.59 142.04 386.081 142.335C387.655 142.672 393.952 143.514 396.935 143.683C400.166 143.683 411.02 143.767 414.996 148.738C414.996 148.738 417.275 151.097 417.192 156.446C417.109 161.922 416.156 163.86 414.044 165.84C411.848 167.693 393.041 176.287 380.903 163.144C380.903 163.144 375.352 156.825 382.85 152.023C382.85 152.023 388.235 148.653 402.03 152.571C402.03 152.571 406.173 154.087 406.007 155.646C405.758 157.331 402.569 159.016 397.929 158.932C393.455 158.805 390.141 156.615 390.804 156.994C391.425 157.204 385.957 154.298 384.258 156.278C382.601 158.131 383.016 159.226 384.673 160.364C388.815 162.807 405.096 161.922 409.942 156.404C409.942 156.404 411.889 154.172 408.948 152.36C406.048 150.675 397.598 149.622 394.325 149.496C391.218 149.327 379.577 149.496 377.837 146.421C377.837 146.421 376.18 144.23 378.003 138.249C379.909 131.93 393.455 129.487 399.338 128.981C399.338 128.981 415.494 128.307 418.518 131.677C418.518 131.677 418.932 132.436 418.435 133.573L418.435 133.615ZM372.618 170.642C370.671 172.116 366.528 171.485 365.327 169.8C364.167 168.325 363.753 162.512 363.96 153.371C364.25 144.02 364.374 132.562 366.445 130.709C368.517 128.897 369.759 130.498 370.588 131.719C371.416 132.983 372.494 134.373 372.659 137.28C372.908 140.229 373.612 155.393 373.612 155.393C373.612 155.393 374.523 169.21 372.659 170.642H372.618ZM376.76 121.357C371.044 123.337 367.15 122.705 363.836 121.231C362.386 123.885 361.516 124.685 360.439 124.853C358.782 125.022 357.332 122.326 357.125 121.483C356.793 120.852 356.006 119.714 356.959 117.145C353.728 114.196 353.479 110.236 354.059 107.583C354.805 104.465 360.273 92.7549 376.843 91.3649C376.843 91.3649 384.963 90.7751 386.371 95.1559H386.62C386.62 95.1559 394.491 95.1559 394.325 102.317C394.325 109.478 385.625 118.408 376.76 121.483L376.76 121.357ZM384.134 100.969C378.914 101.812 370.878 108.888 367.025 114.744C372.949 115.839 383.306 115.418 387.945 105.898C387.945 105.898 390.141 99.916 384.134 100.969ZM361.226 105.603C359.569 108.341 359.486 109.984 360.273 111.079C362.22 108.13 365.658 103.497 370.836 99.8739C366.86 100.295 363.504 101.98 361.226 105.603V105.603ZM502.363 170.347C498.552 179.867 495.321 189.514 493.457 203.962C493.457 203.962 493.043 206.785 490.764 205.858C488.486 205.015 484.757 201.224 483.929 195.875C483.1 188.882 486.166 177.087 492.421 163.523C490.598 160.575 489.314 156.194 490.35 150.044C490.35 150.044 492.007 138.67 503.192 128.392C503.192 128.392 504.518 127.254 505.263 127.634C506.175 128.055 505.802 131.678 505.056 133.531C504.394 135.3 499.422 144.062 499.422 144.062C499.422 144.062 496.315 150.044 497.185 154.719C503.068 145.536 516.448 126.917 524.734 132.815C529.995 136.606 529.995 148.822 526.059 155.899C522.952 161.501 514.17 173.085 502.446 170.389L502.363 170.347ZM519.68 141.745C516.614 145.115 511.146 151.518 506.838 160.195C511.394 159.69 515.827 157.12 517.194 155.815C519.39 153.835 524.444 148.485 523.657 141.408C523.657 141.408 523.159 137.701 519.68 141.745V141.745ZM334.092 175.318C319.427 179.868 305.591 177.761 298.052 175.739C297.844 178.857 297.513 180.162 297.016 180.668C296.436 181.342 291.63 184.122 288.979 180.162C287.819 178.267 287.239 174.855 286.908 171.738C269.923 163.902 262.052 152.361 261.804 151.939C261.39 151.518 257.537 147.432 261.39 142.377C264.994 137.828 276.924 133.236 287.612 131.425C288.026 122.158 289.021 114.997 290.305 111.837C291.838 108.046 293.785 111.416 295.525 113.943C296.933 115.839 297.803 123.969 297.886 130.456C304.845 130.119 309.071 130.624 316.817 132.141C327.008 133.91 333.802 139.218 333.263 145.199C332.766 151.097 327.464 153.54 325.393 153.709C323.321 153.877 320.007 152.318 320.007 152.318C317.687 151.223 319.8 150.212 322.493 149.033C325.475 147.558 324.813 146.084 324.813 146.084C323.736 142.714 310.521 140.482 297.389 140.482C297.389 147.853 297.679 160.069 297.886 167.188C307.082 168.957 313.959 168.578 313.959 168.578C313.959 168.578 347.514 167.609 348.467 145.831C349.502 124.011 314.912 103.118 289.435 96.5462C263.999 89.7642 249.583 94.5663 248.341 95.1982C246.973 95.8722 248.216 96.1249 248.216 96.1249C248.216 96.1249 249.583 96.3354 252.069 97.1781C254.554 98.0205 252.566 99.2842 252.566 99.2842C248.216 100.801 243.369 99.9161 242.417 97.8942C241.464 95.9143 243.038 94.103 244.902 91.4492C246.642 88.7111 248.63 88.7954 248.63 88.7954C280.114 77.6324 318.557 97.6414 318.557 97.6414C354.515 116.092 360.646 137.786 359.983 146.21C359.403 154.509 356.255 168.536 334.092 175.36L334.092 175.318ZM264.911 145.199C261.348 146.884 263.834 149.58 263.834 149.58C270.545 156.868 278.747 161.459 286.618 164.324C287.529 151.687 287.446 147.179 287.446 140.818C275.267 141.661 268.225 143.683 264.911 145.199" fill="white"/>
<path fill-rule="evenodd" clip-rule="evenodd" d="M560.217 118.579C558.87 118.579 557.674 119.651 557.786 120.972C558.397 128.195 558.955 134.813 559.343 141.317H540.54C539.194 141.317 538.109 142.385 538.109 143.711V147.899C538.109 149.225 539.194 150.293 540.54 150.293H559.761C559.959 156.623 559.963 163.005 559.609 169.852C559.541 171.177 560.693 172.246 562.04 172.246H566.446C567.793 172.246 568.781 171.175 568.877 169.852C569.35 163.348 569.547 156.814 569.447 150.293H589.465C590.812 150.293 591.896 149.225 591.896 147.899V143.711C591.896 142.385 590.812 141.317 589.465 141.317H569.067C568.639 134.495 567.878 127.708 566.598 120.972C566.351 119.669 565.514 118.579 564.167 118.579H560.217Z" fill="white"/>
<g filter="url(#filter0_f)">
<path fill-rule="evenodd" clip-rule="evenodd" d="M428.435 11.4726C369.013 11.4726 318.711 42.0631 301.754 84.2468L311.24 90.4539C320.803 53.3265 369.375 19.8899 428.826 19.8899C493.653 19.8899 544.061 74.296 553.853 109.871L562.191 109.791C558.283 80.5805 505.27 11.4726 428.435 11.4726V11.4726Z" fill="url(#paint7_linear)"/>
</g>
<path fill-rule="evenodd" clip-rule="evenodd" d="M429.418 9.52284C371.34 9.52284 322.176 39.4215 305.603 80.6511L314.874 86.7179C324.221 50.4302 371.694 17.7498 429.8 17.7498C493.161 17.7498 542.429 70.9255 552 105.696L560.15 105.618C556.33 77.0675 504.516 9.52264 429.418 9.52264V9.52284Z" fill="url(#paint8_linear)"/>
<defs>
<filter id="filter0_f" x="299.895" y="9.61365" width="264.155" height="102.116" filterUnits="userSpaceOnUse" color-interpolation-filters="sRGB">
<feFlood flood-opacity="0" result="BackgroundImageFix"/>
<feBlend mode="normal" in="SourceGraphic" in2="BackgroundImageFix" result="shape"/>
<feGaussianBlur stdDeviation="0.92949" result="effect1_foregroundBlur"/>
</filter>
<radialGradient id="paint0_radial" cx="0" cy="0" r="1" gradientUnits="userSpaceOnUse" gradientTransform="translate(296.5 259.5) rotate(90) scale(55.5)">
<stop offset="0.723958" stop-color="#D4B3FF" stop-opacity="0.62"/>
<stop offset="1" stop-color="#FFDCE5" stop-opacity="0.02"/>
</radialGradient>
<linearGradient id="paint1_linear" x1="296.5" y1="218.942" x2="296.5" y2="333.678" gradientUnits="userSpaceOnUse">
<stop stop-color="#FFDCE5"/>
<stop offset="1" stop-color="#BF8CFF"/>
</linearGradient>
<linearGradient id="paint2_linear" x1="296.5" y1="220.01" x2="296.5" y2="334.745" gradientUnits="userSpaceOnUse">
<stop stop-color="#FF96B0"/>
<stop offset="1" stop-color="#7633CC"/>
</linearGradient>
<linearGradient id="paint3_linear" x1="332.788" y1="268.038" x2="332.788" y2="293.654" gradientUnits="userSpaceOnUse">
<stop stop-color="#D9FFF6"/>
<stop offset="1" stop-color="#B3C3FF"/>
</linearGradient>
<linearGradient id="paint4_linear" x1="261.279" y1="268.038" x2="261.279" y2="293.654" gradientUnits="userSpaceOnUse">
<stop stop-color="#D9FFF6"/>
<stop offset="1" stop-color="#B3C3FF"/>
</linearGradient>
<radialGradient id="paint5_radial" cx="0" cy="0" r="1" gradientUnits="userSpaceOnUse" gradientTransform="translate(301.324 226.697) rotate(105.511) scale(24.5768 24.6765)">
<stop stop-color="white" stop-opacity="0.79"/>
<stop offset="1" stop-color="white" stop-opacity="0"/>
</radialGradient>
<linearGradient id="paint6_linear" x1="133.121" y1="285.247" x2="284.568" y2="540.369" gradientUnits="userSpaceOnUse">
<stop stop-color="#33CCA7"/>
<stop offset="1" stop-color="#406AFF"/>
</linearGradient>
<linearGradient id="paint7_linear" x1="637.635" y1="139.383" x2="332.348" y2="50.7993" gradientUnits="userSpaceOnUse">
<stop/>
<stop offset="1" stop-opacity="0"/>
</linearGradient>
<linearGradient id="paint8_linear" x1="551.433" y1="92.8924" x2="320.893" y2="61.6413" gradientUnits="userSpaceOnUse">
<stop stop-color="#0CFFFF" stop-opacity="0.996078"/>
<stop offset="0.474454" stop-color="#0069E3" stop-opacity="0.611765"/>
<stop offset="1" stop-color="#0066E2" stop-opacity="0"/>
</linearGradient>
</defs>
</svg>
