<svg width="605" height="350" viewBox="0 0 605 350" fill="none" xmlns="http://www.w3.org/2000/svg">
<path d="M24.978 259.284V262.458H21.068V259.284H24.978ZM16.33 259.284V266.46H29.9V259.284H32.522V261.584C32.522 265.632 33.304 266.92 37.076 266.92H39.836C42.642 266.92 43.746 265.632 44.206 261.354C42.964 261.032 41.032 260.342 40.112 259.652C40.02 262.366 39.836 262.872 39.284 262.872H37.996C37.49 262.872 37.398 262.734 37.398 261.538V259.284H43.516V255.052H37.398V250.498H32.522V255.052H29.9V250.59H24.978V255.052H21.068V250.636L16.33 250.59V255.052H13.754V250.544H8.878V255.052H2.576V259.284H8.556C8.004 261.262 6.532 263.24 2.898 264.436C3.956 265.31 5.382 266.92 6.026 267.932C10.902 265.816 12.926 262.55 13.524 259.284H16.33ZM20.102 272.624V276.074H8.234V272.624H20.102ZM37.858 276.074H25.438V272.624H37.858V276.074ZM3.174 278.144H7.636V290.288H12.972V280.398H20.102V293.002H25.438V280.398H33.442V285.274C33.442 285.78 33.212 285.918 32.568 285.918C31.924 285.964 29.532 285.964 27.462 285.872C28.152 287.114 28.934 289.138 29.164 290.564C32.384 290.564 34.73 290.564 36.57 289.782C38.318 289.046 38.824 287.712 38.824 285.366V278.144H43.194V268.208H3.174V278.144ZM68.816 265.77H76.682C75.486 266.69 74.29 267.564 73.002 268.392H68.816V265.77ZM80.132 281.87H62.606V279.662H80.132V281.87ZM62.606 287.62V285.274H80.132V287.62H62.606ZM89.654 273.084V268.392H81.19C83.582 266.368 85.836 264.206 87.814 261.906L83.306 259.33C82.064 260.94 80.546 262.458 78.982 263.838V261.308H68.816V258.778H63.572V257.352H74.106V260.066H79.442V257.352H89.332V252.568H79.442V250.084H74.106V252.568H63.572V250.084H58.236V252.568H48.622V257.352H58.236V260.066H63.388V261.308H52.394V265.77H63.388V268.392H48.622V273.084H64.354C59.018 275.522 53.084 277.454 47.058 278.788C47.932 279.892 49.266 282.33 49.818 283.48C52.256 282.79 54.74 282.054 57.132 281.18V293.002H62.606V291.76H80.132V292.91H85.56V275.522H70.288C71.714 274.74 73.186 273.958 74.566 273.084H89.654ZM102.994 250.222C100.694 256.754 96.692 263.286 92.552 267.426C93.472 268.76 94.99 271.75 95.496 273.13C96.508 272.026 97.566 270.784 98.578 269.404V292.91H103.822V261.262C105.524 258.226 106.996 255.006 108.192 251.832L102.994 250.222ZM111.504 270.508C110.446 275.614 108.514 280.812 105.892 284.032C107.226 284.722 109.526 286.102 110.584 286.976C113.16 283.25 115.506 277.454 116.84 271.612L111.504 270.508ZM130.64 263.332C130.41 265.356 130.134 267.288 129.904 268.714L134.55 269.496C135.194 266.828 135.976 262.55 136.528 258.824L132.664 258.088L131.79 258.272H115.966C116.794 256.018 117.53 253.764 118.128 251.418L112.792 250.222C111.228 256.524 108.468 262.872 104.972 266.782C106.214 267.61 108.422 269.404 109.388 270.37C110.906 268.438 112.424 266 113.712 263.332H119.048V286.792C119.048 287.39 118.818 287.574 118.22 287.574C117.576 287.574 115.644 287.574 113.712 287.528C114.54 289 115.368 291.438 115.598 293.048C118.542 293.048 120.75 292.818 122.36 291.944C124.016 291.024 124.476 289.506 124.476 286.884V263.332H130.64ZM126.132 271.704C128.34 276.442 130.272 282.744 130.778 286.838L136.022 285.044C135.378 280.904 133.4 274.786 131.008 270.048L126.132 271.704ZM166.336 264.114H160.356V261.216H166.336V264.114ZM166.336 271.566H160.356V268.53H166.336V271.566ZM166.336 279.11H160.356V275.982H166.336V279.11ZM155.066 283.71H181.47V279.11H171.534V275.982H179.262V271.566H171.534V268.53H179.446V264.114H171.534V261.216H180.688V256.616H172.546C173.374 255.052 174.202 253.35 175.03 251.694L169.004 250.544C168.544 252.338 167.854 254.592 167.072 256.616H161.828C162.702 255.006 163.484 253.396 164.174 251.74L158.746 250.176C156.63 255.65 152.812 260.94 148.58 264.16C149.73 265.172 151.754 267.38 152.582 268.484C153.41 267.748 154.238 266.966 155.066 266.092V283.71ZM151.478 258.502C150.006 256.294 146.832 253.258 144.256 251.188L140.07 254.316C142.646 256.524 145.682 259.698 146.97 261.952L151.478 258.502ZM150.236 267.886H139.886V272.9H145.038V282.928C143.198 284.492 141.128 286.01 139.334 287.16L141.91 292.588C144.256 290.61 146.142 288.862 147.982 287.068C150.742 290.61 154.422 291.944 159.896 292.174C165.508 292.404 175.26 292.312 180.964 292.036C181.24 290.518 182.022 287.988 182.666 286.7C176.318 287.206 165.462 287.344 159.942 287.114C155.25 286.93 152.03 285.642 150.236 282.56V267.886ZM194.626 252.614V258.18H205.114C205.252 259.744 205.436 261.4 205.758 263.148L202.952 262.642C200.422 274.74 194.948 283.618 185.38 288.448C186.806 289.506 189.382 291.76 190.394 292.91C198.398 288.126 203.918 280.49 207.368 270.186C209.898 278.42 214.774 287.114 224.296 292.864C225.262 291.438 227.516 289.046 228.712 288.08C211.784 278.098 210.542 261.308 210.542 252.614H194.626Z" fill="white"/>
<path d="M170.819 83.89H160.009V81.038H154.443V83.89H144.093V87.8H170.819V83.89ZM142.483 82.464H130.707V86.604H142.483V82.464ZM143.725 88.628H128.545V92.952H143.725V88.628ZM138.159 111.95V117.24H134.525V111.95H138.159ZM142.529 107.672H130.293V123.358H134.525V121.518H142.529V107.672ZM130.431 105.418H142.621V101.324H130.431V105.418ZM130.431 99.208H142.621V95.022H130.431V99.208ZM153.845 114.296C154.857 113.698 155.777 113.054 156.559 112.364H157.295C157.939 114.204 158.813 115.906 159.825 117.424C157.847 117.7 155.777 118.022 153.845 118.298V114.296ZM154.949 107.12H159.825V108.638H154.949V107.12ZM154.949 102.382H159.825V103.854H154.949V102.382ZM149.613 94.286V91.894H152.557V94.286H149.613ZM162.309 91.894H165.391V94.286H162.309V91.894ZM168.197 112.502C167.001 113.284 165.207 114.388 163.643 115.262C162.907 114.388 162.263 113.422 161.757 112.364H171.049V108.638H164.747V107.12H169.853V103.854H164.747V102.382H170.405V99.116H164.747V97.092H169.531V89.042H158.399V97.092H159.825V99.116H154.949V97.092H156.697V89.042H145.703V97.092H150.119V99.116H145.059V102.382H150.119V103.854H145.657V107.12H150.119V108.638H143.587V112.364H149.935C147.727 113.33 145.151 114.112 142.713 114.664C143.449 115.446 144.691 117.24 145.197 118.068C146.531 117.654 147.865 117.194 149.199 116.642V119.034C147.865 119.218 146.623 119.402 145.519 119.54L146.807 123.634C150.671 122.99 155.639 122.162 160.377 121.288L160.101 117.746C162.263 120.69 165.207 122.898 169.163 124.094C169.715 122.898 170.957 121.15 171.969 120.276C169.761 119.724 167.829 118.85 166.219 117.7C167.783 117.01 169.531 116.136 170.957 115.17L168.197 112.502Z" fill="white"/>
<path d="M376 55.5C376 86.1518 351.152 111 320.5 111C289.848 111 265 86.1518 265 55.5C265 24.8482 289.848 0 320.5 0C351.152 0 376 24.8482 376 55.5Z" fill="url(#paint0_radial)"/>
<path fill-rule="evenodd" clip-rule="evenodd" d="M337.577 107.264C337.577 104.022 334.949 101.394 331.707 101.394C328.465 101.394 325.837 104.022 325.837 107.264V123.808C325.837 127.05 323.208 129.678 319.966 129.678C316.724 129.678 314.096 127.05 314.096 123.808V107.264C314.096 104.022 311.468 101.394 308.226 101.394C304.984 101.394 302.356 104.022 302.356 107.264V118C302.356 121.242 299.728 123.87 296.486 123.87C293.244 123.87 290.615 121.242 290.615 118V101.394V100.248C290.615 90.8168 286.249 82.0408 282.427 73.4185C280.144 68.2668 278.875 62.5652 278.875 56.5673C278.875 33.5785 297.511 14.9423 320.5 14.9423C343.489 14.9423 362.125 33.5785 362.125 56.5673C362.125 63.0702 360.634 69.2248 357.975 74.7078C353.852 83.2094 349.317 91.9455 349.317 101.394V118C349.317 121.242 346.689 123.87 343.447 123.87C340.205 123.87 337.577 121.242 337.577 118V107.264Z" fill="url(#paint1_linear)"/>
<mask id="mask0" mask-type="alpha" maskUnits="userSpaceOnUse" x="278" y="16" width="85" height="115">
<path fill-rule="evenodd" clip-rule="evenodd" d="M337.577 108.332C337.577 105.09 334.949 102.462 331.707 102.462C328.465 102.462 325.837 105.09 325.837 108.332V124.875C325.837 128.117 323.208 130.745 319.966 130.745C316.724 130.745 314.096 128.117 314.096 124.875V108.332C314.096 105.09 311.468 102.462 308.226 102.462C304.984 102.462 302.356 105.09 302.356 108.332V124.875C302.356 128.117 299.728 130.745 296.486 130.745C293.244 130.745 290.615 128.117 290.615 124.875V102.462V101.315C290.615 91.8841 286.249 83.1081 282.427 74.4858C280.144 69.3341 278.875 63.6325 278.875 57.6346C278.875 34.6458 297.511 16.0096 320.5 16.0096C343.489 16.0096 362.125 34.6458 362.125 57.6346C362.125 64.1375 360.634 70.2921 357.975 75.7751C353.852 84.2767 349.317 93.0129 349.317 102.462V124.875C349.317 128.117 346.689 130.745 343.447 130.745C340.205 130.745 337.577 128.117 337.577 124.875V108.332Z" fill="url(#paint2_linear)"/>
</mask>
<g mask="url(#mask0)">
<path d="M369.596 76.8462C369.596 83.9197 363.862 89.6539 356.788 89.6539C349.715 89.6539 343.98 83.9197 343.98 76.8462C343.98 69.7727 349.715 64.0385 356.788 64.0385C363.862 64.0385 369.596 69.7727 369.596 76.8462Z" fill="url(#paint3_linear)"/>
<path d="M298.087 76.8462C298.087 83.9197 292.353 89.6539 285.279 89.6539C278.206 89.6539 272.472 83.9197 272.472 76.8462C272.472 69.7727 278.206 64.0385 285.279 64.0385C292.353 64.0385 298.087 69.7727 298.087 76.8462Z" fill="url(#paint4_linear)"/>
<path fill-rule="evenodd" clip-rule="evenodd" d="M327.092 70.9104C327.428 71.3951 327.309 72.0642 326.799 72.3598C322.693 74.7399 317.617 74.7399 313.511 72.3598C313.001 72.0642 312.882 71.3951 313.217 70.9104C313.553 70.4258 314.216 70.3101 314.73 70.5978C318.098 72.481 322.212 72.481 325.579 70.5978C326.094 70.3101 326.757 70.4258 327.092 70.9104Z" fill="black"/>
<path fill-rule="evenodd" clip-rule="evenodd" d="M326.654 71.2142C326.493 70.9815 326.143 70.8941 325.84 71.0636C322.311 73.0373 318 73.0373 314.471 71.0636C314.168 70.8941 313.818 70.9815 313.657 71.2142C313.482 71.4667 313.563 71.7731 313.779 71.8981C317.719 74.1822 322.592 74.1822 326.532 71.8981C326.748 71.7731 326.829 71.4667 326.654 71.2142ZM325.32 70.132C326.046 69.726 327.022 69.8701 327.532 70.6067C328.028 71.3234 327.871 72.3553 327.067 72.8215C322.796 75.2975 317.515 75.2975 313.244 72.8215C312.44 72.3553 312.283 71.3234 312.779 70.6067C313.289 69.8701 314.265 69.726 314.991 70.132C318.197 71.9248 322.114 71.9248 325.32 70.132Z" fill="black"/>
<path d="M301.306 30.1464C297.885 32.5154 295.802 35.3971 294.767 33.9032C293.732 32.4093 295.591 29.0256 299.011 26.6565C302.431 24.2874 306.118 23.8301 307.153 25.3241C308.188 26.818 304.726 27.7773 301.306 30.1464Z" fill="#FFFBFC" fill-opacity="0.47"/>
<path d="M312.946 24.072C311.712 24.7304 310.076 25.2245 309.47 24.089C308.864 22.9534 309.494 22.3788 310.728 21.7204C311.962 21.0621 313.334 20.5693 313.939 21.7048C314.545 22.8404 314.18 23.4137 312.946 24.072Z" fill="#FFFBFC" fill-opacity="0.47"/>
<path fill-rule="evenodd" clip-rule="evenodd" d="M320.756 52.2449C328.803 52.6964 337.842 55.884 344.168 52.6423C350.519 49.3877 347.711 43.5511 346.991 38.8017C346.328 34.4284 345.185 30.0978 340.272 26.9326C334.765 23.3855 327.423 20.2051 318.994 20.7665C310.644 21.3226 304.225 25.5197 299.301 29.6612C295.016 33.2655 292.918 37.5934 294.025 41.7678C295.018 45.5156 299.536 48.3674 304.808 50.4338C309.413 52.2387 315.121 51.9288 320.756 52.2449Z" fill="url(#paint5_radial)" fill-opacity="0.55"/>
<path d="M354.655 60.8365C354.655 67.3206 349.398 72.5769 342.914 72.5769C336.43 72.5769 331.174 67.3206 331.174 60.8365C331.174 54.3525 336.43 49.0961 342.914 49.0961C349.398 49.0961 354.655 54.3525 354.655 60.8365Z" fill="white"/>
<path d="M351.129 60.9855C351.129 65.4407 347.517 69.0523 343.062 69.0523C338.607 69.0523 334.995 65.4407 334.995 60.9855C334.995 56.5303 338.607 52.9186 343.062 52.9186C347.517 52.9186 351.129 56.5303 351.129 60.9855Z" fill="black"/>
<path d="M309.827 60.8365C309.827 67.3206 304.571 72.5769 298.087 72.5769C291.603 72.5769 286.347 67.3206 286.347 60.8365C286.347 54.3525 291.603 49.0961 298.087 49.0961C304.571 49.0961 309.827 54.3525 309.827 60.8365Z" fill="white"/>
<path d="M306.303 60.9855C306.303 65.4407 302.691 69.0523 298.236 69.0523C293.781 69.0523 290.169 65.4407 290.169 60.9855C290.169 56.5303 293.781 52.9186 298.236 52.9186C302.691 52.9186 306.303 56.5303 306.303 60.9855Z" fill="black"/>
</g>
<path d="M206.404 121.636C203.896 121.636 201.581 121.177 199.461 120.258C197.377 119.304 195.663 117.961 194.32 116.23L199.09 110.506C201.104 113.227 203.401 114.587 205.98 114.587C209.478 114.587 211.227 112.538 211.227 108.439V90.79H198.189V83.9H219.76V107.962C219.76 112.52 218.63 115.947 216.368 118.244C214.107 120.505 210.786 121.636 206.404 121.636ZM255.589 106.849C255.589 106.955 255.536 107.697 255.43 109.075H233.859C234.248 110.842 235.167 112.237 236.615 113.262C238.064 114.287 239.866 114.799 242.021 114.799C243.505 114.799 244.813 114.587 245.943 114.163C247.109 113.704 248.187 112.997 249.176 112.043L253.575 116.813C250.89 119.887 246.968 121.424 241.809 121.424C238.594 121.424 235.75 120.806 233.276 119.569C230.803 118.297 228.895 116.548 227.552 114.322C226.21 112.096 225.538 109.57 225.538 106.743C225.538 103.952 226.192 101.443 227.499 99.217C228.842 96.9557 230.662 95.2067 232.958 93.97C235.29 92.698 237.887 92.062 240.749 92.062C243.541 92.062 246.067 92.6627 248.328 93.864C250.59 95.0653 252.356 96.7967 253.628 99.058C254.936 101.284 255.589 103.881 255.589 106.849ZM240.802 98.316C238.93 98.316 237.357 98.846 236.085 99.906C234.813 100.966 234.036 102.415 233.753 104.252H247.798C247.516 102.45 246.738 101.019 245.466 99.959C244.194 98.8637 242.64 98.316 240.802 98.316ZM261.094 81.674H269.362V121H261.094V81.674ZM277.035 81.674H285.303V121H277.035V81.674ZM321.279 92.486L308.4 122.749C307.092 126.035 305.467 128.349 303.524 129.692C301.616 131.035 299.301 131.706 296.581 131.706C295.097 131.706 293.63 131.476 292.182 131.017C290.733 130.558 289.549 129.922 288.631 129.109L291.652 123.226C292.288 123.791 293.012 124.233 293.825 124.551C294.673 124.869 295.503 125.028 296.316 125.028C297.446 125.028 298.365 124.745 299.072 124.18C299.778 123.65 300.414 122.749 300.98 121.477L301.086 121.212L288.737 92.486H297.27L305.273 111.831L313.329 92.486H321.279ZM367.487 101.708C369.607 102.379 371.268 103.51 372.469 105.1C373.671 106.655 374.271 108.58 374.271 110.877C374.271 114.128 372.999 116.636 370.455 118.403C367.947 120.134 364.272 121 359.431 121H340.245V83.9H358.371C362.894 83.9 366.357 84.7657 368.759 86.497C371.197 88.2283 372.416 90.578 372.416 93.546C372.416 95.348 371.975 96.9557 371.091 98.369C370.243 99.7823 369.042 100.895 367.487 101.708ZM348.778 90.366V99.111H357.311C359.431 99.111 361.039 98.74 362.134 97.998C363.23 97.256 363.777 96.1607 363.777 94.712C363.777 93.2633 363.23 92.1857 362.134 91.479C361.039 90.737 359.431 90.366 357.311 90.366H348.778ZM358.795 114.534C361.057 114.534 362.753 114.163 363.883 113.421C365.049 112.679 365.632 111.531 365.632 109.976C365.632 106.902 363.353 105.365 358.795 105.365H348.778V114.534H358.795ZM393.757 121.424C390.753 121.424 388.05 120.806 385.648 119.569C383.28 118.297 381.425 116.548 380.083 114.322C378.74 112.096 378.069 109.57 378.069 106.743C378.069 103.916 378.74 101.39 380.083 99.164C381.425 96.938 383.28 95.2067 385.648 93.97C388.05 92.698 390.753 92.062 393.757 92.062C396.76 92.062 399.445 92.698 401.813 93.97C404.18 95.2067 406.035 96.938 407.378 99.164C408.72 101.39 409.392 103.916 409.392 106.743C409.392 109.57 408.72 112.096 407.378 114.322C406.035 116.548 404.18 118.297 401.813 119.569C399.445 120.806 396.76 121.424 393.757 121.424ZM393.757 114.64C395.877 114.64 397.608 113.933 398.951 112.52C400.329 111.071 401.018 109.146 401.018 106.743C401.018 104.34 400.329 102.432 398.951 101.019C397.608 99.5703 395.877 98.846 393.757 98.846C391.637 98.846 389.888 99.5703 388.51 101.019C387.132 102.432 386.443 104.34 386.443 106.743C386.443 109.146 387.132 111.071 388.51 112.52C389.888 113.933 391.637 114.64 393.757 114.64ZM428.486 121.424C425.483 121.424 422.78 120.806 420.377 119.569C418.01 118.297 416.155 116.548 414.812 114.322C413.469 112.096 412.798 109.57 412.798 106.743C412.798 103.916 413.469 101.39 414.812 99.164C416.155 96.938 418.01 95.2067 420.377 93.97C422.78 92.698 425.483 92.062 428.486 92.062C431.489 92.062 434.175 92.698 436.542 93.97C438.909 95.2067 440.764 96.938 442.107 99.164C443.45 101.39 444.121 103.916 444.121 106.743C444.121 109.57 443.45 112.096 442.107 114.322C440.764 116.548 438.909 118.297 436.542 119.569C434.175 120.806 431.489 121.424 428.486 121.424ZM428.486 114.64C430.606 114.64 432.337 113.933 433.68 112.52C435.058 111.071 435.747 109.146 435.747 106.743C435.747 104.34 435.058 102.432 433.68 101.019C432.337 99.5703 430.606 98.846 428.486 98.846C426.366 98.846 424.617 99.5703 423.239 101.019C421.861 102.432 421.172 104.34 421.172 106.743C421.172 109.146 421.861 111.071 423.239 112.52C424.617 113.933 426.366 114.64 428.486 114.64Z" fill="url(#paint6_linear)"/>
<path d="M486.936 263.869C482.089 265.007 469.288 265.639 469.288 265.639L467.714 270.778C467.714 270.778 474.052 270.23 478.692 270.693C478.692 270.693 480.183 270.567 480.349 272.378C480.432 274.232 480.225 276.17 480.225 276.17C480.225 276.17 480.1 277.307 478.568 277.602C476.786 277.897 464.773 278.444 464.773 278.444L462.826 285.1C462.826 285.1 462.122 286.616 463.737 286.195C465.228 285.774 477.822 283.331 479.479 283.668C481.219 284.089 483.207 286.532 482.627 288.723C481.964 291.376 469.371 299.548 461.749 299.001C461.749 299.001 457.73 299.253 454.375 293.735C451.144 288.47 455.493 278.571 455.493 278.571C455.493 278.571 453.546 273.937 454.996 272.252C454.996 272.252 455.825 271.536 458.31 271.325L461.417 264.838C461.417 264.838 457.896 265.049 455.825 262.437C453.919 259.91 453.754 258.815 455.245 258.14C456.819 257.298 471.401 254.644 481.426 254.981C481.426 254.981 484.947 254.56 488.054 260.752C488.054 260.752 489.463 263.28 486.977 263.869H486.936ZM449.155 288.807C447.912 291.882 444.474 295.125 440.332 293.146C436.106 291.124 429.437 277.307 429.437 277.307C429.437 277.307 426.951 272.168 426.454 272.336C426.454 272.336 425.915 271.325 425.625 276.97C425.211 282.572 425.708 293.483 423.43 295.21C421.359 296.895 418.873 296.178 417.464 294.199C416.305 292.219 415.807 287.459 416.47 279.16C417.216 270.862 419.08 262.016 421.441 259.278C423.927 256.498 425.915 258.52 426.661 259.278C426.661 259.278 429.851 262.227 435.236 270.946L436.148 272.547C436.148 272.547 441.036 280.845 441.533 280.803C441.533 280.803 441.947 281.224 442.279 280.888C442.776 280.761 442.61 278.065 442.61 278.065C442.61 278.065 441.699 269.093 437.142 253.928C437.142 253.928 436.479 251.991 436.935 250.137C437.349 248.452 439.131 249.295 439.131 249.295C439.131 249.295 446.007 252.665 449.363 264.038C452.677 275.412 450.44 285.732 449.197 288.807L449.155 288.807ZM415.435 259.615C414.772 260.795 414.482 262.437 411.624 262.901C411.624 262.901 383.868 264.881 382.501 266.86C382.501 266.86 381.59 268.04 383.081 268.335C384.655 268.672 390.952 269.514 393.935 269.683C397.166 269.683 408.02 269.767 411.996 274.738C411.996 274.738 414.275 277.097 414.192 282.446C414.109 287.922 413.156 289.86 411.044 291.84C408.848 293.693 390.041 302.287 377.903 289.144C377.903 289.144 372.352 282.825 379.85 278.023C379.85 278.023 385.235 274.653 399.03 278.571C399.03 278.571 403.173 280.087 403.007 281.646C402.758 283.331 399.569 285.016 394.929 284.932C390.455 284.805 387.141 282.615 387.804 282.994C388.425 283.204 382.957 280.298 381.258 282.278C379.601 284.131 380.016 285.227 381.673 286.364C385.815 288.807 402.096 287.922 406.942 282.404C406.942 282.404 408.889 280.172 405.948 278.36C403.048 276.675 394.598 275.622 391.325 275.496C388.218 275.327 376.577 275.496 374.837 272.421C374.837 272.421 373.18 270.23 375.003 264.249C376.909 257.93 390.455 255.487 396.338 254.981C396.338 254.981 412.494 254.307 415.518 257.677C415.518 257.677 415.932 258.436 415.435 259.573L415.435 259.615ZM369.618 296.642C367.671 298.116 363.528 297.485 362.327 295.8C361.167 294.325 360.753 288.512 360.96 279.371C361.25 270.02 361.374 258.562 363.445 256.709C365.517 254.897 366.759 256.498 367.588 257.719C368.416 258.983 369.494 260.373 369.659 263.28C369.908 266.229 370.612 281.393 370.612 281.393C370.612 281.393 371.523 295.21 369.659 296.642H369.618ZM373.76 247.357C368.044 249.337 364.15 248.705 360.836 247.231C359.386 249.885 358.516 250.685 357.439 250.853C355.782 251.022 354.332 248.326 354.125 247.483C353.793 246.852 353.006 245.714 353.959 243.145C350.728 240.196 350.479 236.236 351.059 233.583C351.805 230.465 357.273 218.755 373.843 217.365C373.843 217.365 381.963 216.775 383.371 221.156H383.62C383.62 221.156 391.491 221.156 391.325 228.317C391.325 235.478 382.625 244.408 373.76 247.483L373.76 247.357ZM381.134 226.969C375.914 227.812 367.878 234.888 364.025 240.744C369.949 241.839 380.306 241.418 384.945 231.898C384.945 231.898 387.141 225.916 381.134 226.969ZM358.226 231.603C356.569 234.341 356.486 235.984 357.273 237.079C359.22 234.13 362.658 229.497 367.836 225.874C363.86 226.295 360.504 227.98 358.226 231.603V231.603ZM499.363 296.347C495.552 305.867 492.321 315.514 490.457 329.962C490.457 329.962 490.043 332.785 487.764 331.858C485.486 331.015 481.757 327.224 480.929 321.875C480.1 314.882 483.166 303.087 489.421 289.523C487.598 286.575 486.314 282.194 487.35 276.044C487.35 276.044 489.007 264.67 500.192 254.392C500.192 254.392 501.518 253.254 502.263 253.634C503.175 254.055 502.802 257.678 502.056 259.531C501.394 261.3 496.422 270.062 496.422 270.062C496.422 270.062 493.315 276.044 494.185 280.719C500.068 271.536 513.448 252.917 521.734 258.815C526.995 262.606 526.995 274.822 523.059 281.899C519.952 287.501 511.17 299.085 499.446 296.39L499.363 296.347ZM516.68 267.745C513.614 271.115 508.146 277.518 503.838 286.195C508.394 285.69 512.827 283.12 514.194 281.815C516.39 279.835 521.444 274.485 520.657 267.408C520.657 267.408 520.159 263.701 516.68 267.745V267.745ZM331.092 301.318C316.427 305.868 302.591 303.761 295.052 301.739C294.844 304.857 294.513 306.162 294.016 306.668C293.436 307.342 288.63 310.122 285.979 306.162C284.819 304.267 284.239 300.855 283.908 297.738C266.923 289.902 259.052 278.361 258.804 277.939C258.39 277.518 254.537 273.432 258.39 268.377C261.994 263.828 273.924 259.236 284.612 257.425C285.026 248.158 286.021 240.997 287.305 237.837C288.838 234.046 290.785 237.416 292.525 239.943C293.933 241.839 294.803 249.969 294.886 256.456C301.845 256.119 306.071 256.624 313.817 258.141C324.008 259.91 330.802 265.218 330.263 271.199C329.766 277.097 324.464 279.54 322.393 279.709C320.321 279.877 317.007 278.318 317.007 278.318C314.687 277.223 316.8 276.212 319.493 275.033C322.475 273.558 321.813 272.084 321.813 272.084C320.736 268.714 307.521 266.482 294.389 266.482C294.389 273.853 294.679 286.069 294.886 293.188C304.082 294.957 310.959 294.578 310.959 294.578C310.959 294.578 344.514 293.609 345.467 271.831C346.502 250.011 311.912 229.118 286.435 222.546C260.999 215.764 246.583 220.566 245.341 221.198C243.973 221.872 245.216 222.125 245.216 222.125C245.216 222.125 246.583 222.335 249.069 223.178C251.554 224.02 249.566 225.284 249.566 225.284C245.216 226.801 240.369 225.916 239.417 223.894C238.464 221.914 240.038 220.103 241.902 217.449C243.642 214.711 245.63 214.795 245.63 214.795C277.114 203.632 315.557 223.641 315.557 223.641C351.515 242.092 357.646 263.786 356.983 272.21C356.403 280.509 353.255 294.536 331.092 301.36L331.092 301.318ZM261.911 271.199C258.348 272.884 260.834 275.58 260.834 275.58C267.545 282.868 275.747 287.459 283.618 290.324C284.529 277.687 284.446 273.179 284.446 266.818C272.267 267.661 265.225 269.683 261.911 271.199" fill="white"/>
<path fill-rule="evenodd" clip-rule="evenodd" d="M557.217 244.579C555.87 244.579 554.674 245.651 554.786 246.972C555.397 254.195 555.955 260.813 556.343 267.317H537.54C536.194 267.317 535.109 268.385 535.109 269.711V273.899C535.109 275.225 536.194 276.293 537.54 276.293H556.761C556.959 282.623 556.963 289.005 556.609 295.852C556.541 297.177 557.693 298.246 559.04 298.246H563.446C564.793 298.246 565.781 297.175 565.877 295.852C566.35 289.348 566.547 282.814 566.447 276.293H586.465C587.812 276.293 588.896 275.225 588.896 273.899V269.711C588.896 268.385 587.812 267.317 586.465 267.317H566.067C565.639 260.495 564.878 253.708 563.598 246.972C563.351 245.669 562.514 244.579 561.167 244.579H557.217Z" fill="white"/>
<g filter="url(#filter0_f)">
<path fill-rule="evenodd" clip-rule="evenodd" d="M425.435 137.473C366.013 137.473 315.711 168.063 298.754 210.247L308.24 216.454C317.803 179.326 366.375 145.89 425.826 145.89C490.653 145.89 541.061 200.296 550.853 235.871L559.191 235.791C555.283 206.58 502.27 137.473 425.435 137.473V137.473Z" fill="url(#paint7_linear)"/>
</g>
<path fill-rule="evenodd" clip-rule="evenodd" d="M426.418 135.523C368.34 135.523 319.176 165.421 302.603 206.651L311.874 212.718C321.221 176.43 368.694 143.75 426.8 143.75C490.161 143.75 539.429 196.925 549 231.696L557.15 231.618C553.33 203.068 501.516 135.523 426.418 135.523V135.523Z" fill="url(#paint8_linear)"/>
<defs>
<filter id="filter0_f" x="296.895" y="135.614" width="264.155" height="102.116" filterUnits="userSpaceOnUse" color-interpolation-filters="sRGB">
<feFlood flood-opacity="0" result="BackgroundImageFix"/>
<feBlend mode="normal" in="SourceGraphic" in2="BackgroundImageFix" result="shape"/>
<feGaussianBlur stdDeviation="0.92949" result="effect1_foregroundBlur"/>
</filter>
<radialGradient id="paint0_radial" cx="0" cy="0" r="1" gradientUnits="userSpaceOnUse" gradientTransform="translate(320.5 55.5) rotate(90) scale(55.5)">
<stop offset="0.723958" stop-color="#D4B3FF" stop-opacity="0.62"/>
<stop offset="1" stop-color="#FFDCE5" stop-opacity="0.02"/>
</radialGradient>
<linearGradient id="paint1_linear" x1="320.5" y1="14.9423" x2="320.5" y2="129.678" gradientUnits="userSpaceOnUse">
<stop stop-color="#FFDCE5"/>
<stop offset="1" stop-color="#BF8CFF"/>
</linearGradient>
<linearGradient id="paint2_linear" x1="320.5" y1="16.0096" x2="320.5" y2="130.745" gradientUnits="userSpaceOnUse">
<stop stop-color="#FF96B0"/>
<stop offset="1" stop-color="#7633CC"/>
</linearGradient>
<linearGradient id="paint3_linear" x1="356.788" y1="64.0385" x2="356.788" y2="89.6539" gradientUnits="userSpaceOnUse">
<stop stop-color="#D9FFF6"/>
<stop offset="1" stop-color="#B3C3FF"/>
</linearGradient>
<linearGradient id="paint4_linear" x1="285.279" y1="64.0385" x2="285.279" y2="89.6539" gradientUnits="userSpaceOnUse">
<stop stop-color="#D9FFF6"/>
<stop offset="1" stop-color="#B3C3FF"/>
</linearGradient>
<radialGradient id="paint5_radial" cx="0" cy="0" r="1" gradientUnits="userSpaceOnUse" gradientTransform="translate(325.324 22.6971) rotate(105.511) scale(24.5768 24.6765)">
<stop stop-color="white" stop-opacity="0.79"/>
<stop offset="1" stop-color="white" stop-opacity="0"/>
</radialGradient>
<linearGradient id="paint6_linear" x1="244.796" y1="85.1336" x2="392.976" y2="186.421" gradientUnits="userSpaceOnUse">
<stop stop-color="#33CCA7"/>
<stop offset="1" stop-color="#406AFF"/>
</linearGradient>
<linearGradient id="paint7_linear" x1="634.635" y1="265.383" x2="329.348" y2="176.799" gradientUnits="userSpaceOnUse">
<stop/>
<stop offset="1" stop-opacity="0"/>
</linearGradient>
<linearGradient id="paint8_linear" x1="548.433" y1="218.892" x2="317.893" y2="187.641" gradientUnits="userSpaceOnUse">
<stop stop-color="#0CFFFF" stop-opacity="0.996078"/>
<stop offset="0.474454" stop-color="#0069E3" stop-opacity="0.611765"/>
<stop offset="1" stop-color="#0066E2" stop-opacity="0"/>
</linearGradient>
</defs>
</svg>
